/* XPM */
static char *_f3249ee3b854c79b704cbd81554a1e9lBkI5W8ZjFKMGyOw[] = {
/* columns rows colors chars-per-pixel */
"64 64 154 2 ",
"   c None",
".  c #000000",
"X  c #0C0605",
"o  c #0C0806",
"O  c #05060D",
"+  c #06090B",
"@  c #0D090E",
"#  c #0E070B",
"$  c #140506",
"%  c #120D07",
"&  c #150E0B",
"*  c #1B0B09",
"=  c #1A0906",
"-  c #17100C",
";  c #1A110E",
":  c #0A0912",
">  c #120F14",
",  c #0B1114",
"<  c #0D131A",
"1  c #121216",
"2  c #19191A",
"3  c #11191E",
"4  c #5D2424",
"5  c #612825",
"6  c #672728",
"7  c #662829",
"8  c #6A2929",
"9  c #622525",
"0  c #732B2A",
"q  c #782F2B",
"w  c #6B3939",
"e  c #663738",
"r  c #763132",
"t  c #723C3C",
"y  c #7D3E3E",
"u  c #72403E",
"i  c #7A413F",
"p  c #2F2F66",
"a  c #31326B",
"s  c #3A346A",
"d  c #303066",
"f  c #3E3974",
"g  c #383879",
"h  c #363772",
"j  c #763F41",
"k  c #463770",
"l  c #463C70",
"z  c #413D78",
"x  c #483C74",
"c  c #44356B",
"v  c #3B407A",
"b  c #754044",
"n  c #7A4241",
"m  c #7F4848",
"M  c #494276",
"N  c #4C467A",
"B  c #41417B",
"V  c #524A7B",
"C  c #534678",
"Z  c #813F3F",
"A  c #AB3232",
"S  c #A9373A",
"D  c #A63233",
"F  c #B53636",
"G  c #BB3737",
"H  c #BA3937",
"J  c #B2393E",
"K  c #BD3A3B",
"L  c #C03737",
"P  c #C33A39",
"I  c #C83E3A",
"U  c #8E6536",
"Y  c #936738",
"T  c #956B39",
"R  c #CA403B",
"E  c #824443",
"W  c #834946",
"Q  c #874D48",
"!  c #894E49",
"~  c #BE4548",
"^  c #AE7C46",
"/  c #A87643",
"(  c #B77A5F",
")  c #BC7D62",
"_  c #C44A4C",
"`  c #C84543",
"'  c #DD5D40",
"]  c #D75B40",
"[  c #C24E52",
"{  c #C35054",
"}  c #E65F44",
"|  c #EA5F45",
" . c #DD6349",
".. c #E96145",
"X. c #F36446",
"o. c #F86747",
"O. c #F86848",
"+. c #F36B50",
"@. c #F6765B",
"#. c #C18064",
"$. c #C98766",
"%. c #C2826D",
"&. c #CC866A",
"*. c #CF886B",
"=. c #D38D6D",
"-. c #C58571",
";. c #D18C71",
":. c #D79171",
">. c #DA9372",
",. c #3F4481",
"<. c #3F4883",
"1. c #444482",
"2. c #4B4B86",
"3. c #514E85",
"4. c #3DB189",
"5. c #5F88A3",
"6. c #638DAB",
"7. c #6089A4",
"8. c #6590AD",
"9. c #658EB0",
"0. c #6A95B9",
"q. c #6890B5",
"w. c #6FC8A0",
"e. c #70C9A1",
"r. c #9D9CBA",
"t. c #9D96B2",
"y. c #AF9DB8",
"u. c #B29EB8",
"i. c #B1A3BF",
"p. c #D7A886",
"a. c #DEAB89",
"s. c #E3B18D",
"d. c #EEB589",
"f. c #E9B285",
"g. c #F5BB8D",
"h. c #F9C190",
"j. c #A59FC1",
"k. c #A3A4C8",
"l. c #B3A4C0",
"z. c #B7B1CE",
"x. c #B8B1CD",
"c. c #B7B7D6",
"v. c #A1E0C1",
"b. c #CFCFDD",
"n. c #D0C9D5",
"m. c #DCCEDF",
"M. c #E1CEDC",
"N. c #E8D3DD",
"B. c #CDCEE5",
"V. c #D5D6EB",
"C. c #E5D6E4",
"Z. c #EADBE6",
"A. c #E5DCEC",
"S. c #E3E3F5",
/* pixels */
"w.w.w.w.w.w.w.e.e.e.e.e.e.e.e.e.w.w.w.w.w.w.w.w.w.w.w.w.e.e.e.e.w.w.w.w.w.w.w.w.w.w.w.w.w.w.e.e.e.e.e.e.e.e.e.e.w.w.w.w.w.e.e.e.",
"w.w.w.w.w.w.w.w.e.e.e.e.e.e.e.e.w.w.w.w.w.w.w.w.w.w.w.w.e.e.e.e.w.w.w.w.w.w.e.e.w.w.w.w.w.w.e.e.e.e.e.e.e.e.e.e.w.w.w.w.w.w.e.e.",
"w.w.w.w.w.w.w.w.e.e.e.e.e.e.e.e.w.w.w.w.w.w.w.w.w.w.w.w.e.e.e.e.w.w.w.w.e.e.e.e.w.w.w.w.w.e.e.e.e.e.e.e.e.e.e.e.w.e.w.w.e.e.e.e.",
"w.w.w.w.w.w.w.w.e.e.e.e.e.e.e.e.w.w.w.w.w.e.w.w.w.w.w.w.e.e.e.e.w.w.w.w.e.e.e.e.w.w.w.w.w.w.e.e.e.e.e.e.e.e.e.e.e.e.w.w.e.e.e.e.",
"w.w.w.w.w.w.w.w.e.e.e.e.e.e.e.e.e.e.e.e.e.e.e.e.w.w.e.e.e.e.e.e.w.w.w.w.e.e.e.e.e.e.e.w.e.e.e.e.e.e.e.e.e.e.e.e.w.w.e.e.e.e.e.e.",
"w.w.w.w.w.w.w.w.e.e.e.e.e.e.e.e.e.e.e.e.e.e.e.e.w.w.e.e.w.w.e.e.w.w.w.w.e.e.e.e.e.e.w.w.e.e.e.e.e.e.e.e.e.e.e.e.w.w.w.e.e.e.e.e.",
"w.w.w.w.w.w.w.w.e.e.e.e.e.e.e.e.e.e.e.e.e.e.e.e.e.e.e.e.w.w.w.e.w.w.w.w.e.e.e.e.e.e.w.w.e.e.e.e.e.e.e.e.e.e.e.e.w.w.e.e.e.e.e.e.",
"w.w.w.w.w.w.w.w.e.e.e.e.e.e.e.e.e.e.e.e.e.e.e.e.e.e.e.e.w.w.e.e.w.w.w.w.e.e.e.e.e.w.w.w.e.e.e.e.e.e.e.e.e.e.e.e.w.w.e.e.e.e.e.e.",
"e.e.w.w.w.w.w.w.w.w.w.w.w.w.w.w.e.e.e.e.e.e.e.e.w.w.w.w.e.e.e.e.e.e.e.e.e.e.e.e.w.w.w.w.e.e.e.e.w.w.w.w.w.w.w.w.w.w.w.w.w.e.e.e.",
"e.e.e.w.w.w.w.w.w.w.w.w.w.w.w.w.e.e.e.e.e.e.e.e.w.w.w.w.e.e.e.e.e.e.e.e.e.e.e.e.w.w.w.w.e.e.e.e.w.w.w.w.w.w.w.w.w.w.w.w.e.e.w.e.",
"e.e.w.w.w.w.w.w.w.w.w.w.e.e.w.w.e.e.e.e.e.e.e.e.w.w.w.w.e.e.e.e.e.e.e.e.e.e.e.e.e.e.w.e.e.e.e.e.w.w.w.w.w.w.w.w.w.w.w.e.w.w.w.w.",
"e.e.w.w.w.w.w.w.w.w.w.w.e.e.w.w.e.e.e.e.e.e.e.e.w.w.w.w.e.e.e.e.e.e.e.e.e.e.e.e.w.e.e.e.e.e.e.e.e.w.w.w.w.w.w.w.w.w.w.e.w.w.w.w.",
"e.e.e.e.e.e.e.e.w.w.w.w.w.w.w.w.e.e.e.e.4.4.4.4.e.e.e.e.e.e.e.e.e.e.e.e.e.e.e.e.e.e.e.e.e.e.e.e.e.e.e.e.w.w.w.w.e.e.e.e.e.e.e.e.",
"e.e.e.e.e.e.e.e.w.w.w.w.w.w.w.w.e.e.e.e.4.4.4.4.e.e.e.e.e.e.e.e.e.e.e.e.e.e.e.e.e.e.e.e.e.e.e.e.e.e.e.e.w.w.w.w.e.e.e.e.e.e.e.e.",
"e.e.e.e.e.e.e.e.e.e.w.w.w.w.w.w.e.e.e.e.4.4.4.4.e.e.e.e.e.e.e.e.e.e.e.e.e.e.e.e.e.e.e.e.e.e.e.e.e.e.e.e.w.w.w.w.e.e.e.e.e.e.e.e.",
"e.e.e.e.e.e.e.e.w.e.w.w.w.w.w.w.e.e.e.e.4.4.4.4.e.e.e.e.e.e.e.e.e.e.e.e.e.e.e.e.e.e.e.e.e.e.e.e.e.e.e.e.w.w.w.w.e.e.e.e.e.e.e.e.",
"e.e.e.e.e.e.e.e.4.4.4.4.e.w.w.w.w.e.e.e.4.4.4.4.w.w.w.w.e.e.e.e.4.4.4.4.w.w.w.w.w.w.w.e.e.w.w.w.e.e.e.e.w.w.w.w.w.w.e.e.e.e.e.e.",
"e.e.e.e.e.e.e.e.4.4.4.4.w.w.w.w.e.e.e.e.4.4.4.4.w.w.w.w.e.e.e.e.4.4.4.4.w.w.w.w.w.w.w.w.e.w.w.w.e.e.e.e.w.w.w.w.e.e.e.e.e.e.e.e.",
"e.e.e.e.e.e.e.e.4.4.4.4.w.w.w.w.e.e.e.e.4.4.4.4.w.w.w.w.e.e.e.e.4.4.4.4.w.w.w.w.w.w.w.w.e.e.w.w.e.e.e.e.w.w.w.w.e.e.e.e.e.e.e.e.",
"e.e.e.e.e.e.e.e.4.4.4.4.w.w.w.w.e.e.e.e.4.4.4.4.w.w.w.w.e.e.e.e.4.4.4.4.w.w.w.w.w.w.w.w.e.e.w.w.w.e.e.e.w.w.w.w.e.e.e.e.e.e.e.e.",
"e.e.e.e.e.e.e.e.e.e.e.e.4.4.4.4.e.e.e.e.w.w.w.e.e.e.e.e.4.4.4.4.w.w.w.w.e.e.e.e.w.e.e.e.w.w.w.w.e.e.e.e.w.w.e.e.w.w.w.w.e.e.e.e.",
"e.e.e.e.e.e.e.e.e.e.e.e.4.4.4.4.e.e.e.e.w.w.e.e.e.e.e.e.4.4.4.4.w.w.w.w.e.e.e.e.e.e.e.e.w.w.w.w.e.e.e.e.w.w.e.w.w.w.w.w.e.e.e.e.",
"e.e.e.e.e.e.e.e.e.e.w.w.4.4.4.4.e.e.e.e.e.e.e.e.e.e.e.e.4.4.4.4.e.e.w.w.e.e.e.e.e.e.e.e.w.w.w.w.e.e.e.e.w.w.w.w.w.w.w.w.e.e.e.e.",
"e.e.e.e.e.e.e.e.w.w.w.w.4.4.4.4.e.e.e.e.e.e.e.e.e.e.e.e.4.4.4.4.e.w.w.w.e.e.e.e.e.e.e.e.w.w.w.w.e.e.e.e.w.w.w.w.w.w.w.w.e.e.e.e.",
"e.e.e.e.w.w.w.w.e.e.e.e.w.w.w.w.e.e.e.e.e.e.e.e.e.e.e.e.w.e.e.e.e.e.e.e.e.e.e.e.e.e.e.e.e.w.w.w.e.e.e.e.w.e.e.e.w.w.w.w.w.w.w.w.",
"e.e.e.e.w.w.w.w.e.e.e.e.w.w.w.w.                                                                e.e.e.e.w.e.e.e.w.w.w.w.w.w.w.w.",
"e.e.e.e.w.w.w.w.e.e.e.e.e.w.w.w.6 8 8 8 7 6 6 7 6 6 6 6 6 6 6 7 7 7 7 8 6 6 8 8 7 7 9 7 6 7 6 6 e.e.e.e.w.w.e.e.w.w.w.w.e.e.e.e.",
"e.e.e.e.w.w.w.w.e.e.e.e.        0 0 0 0 q q q q q q q q q q q q q q q q q q q q q q q q 0 0 0 0         w.w.e.e.w.w.w.w.e.e.e.e.",
"e.e.e.e.e.e.e.e.w.w.e.e.8 8 8 8 F F F F ................................................F F F F w 8 8 7 e.e.e.e.e.e.e.e.w.e.e.e.",
"e.e.e.e.e.e.e.e.w.w.e.e.8 8 6 0 P P I R X.O.O.O.O.O.O.O.O.O.O.O.O.O.O.O.o.O.O.O.O.O.O.X.R I I P 8 8 7 7 e.e.e.e.e.e.e.e.w.e.e.e.",
"e.e.e.e.e.e.e.e.w.e.e.e.9 8 6 8 | X.X.X.O.O.O.O.O.O.O.O.O.O.O.O.O.O.O.O.O.O.O.O.O.O.O.O.X.X.X...0 7 7 7 e.e.e.e.e.e.e.e.w.w.e.w.",
"e.e.e.e.e.e.e.e.        0 0 0 q X.O.O.O.O.O.O.O.O.O.O.O.O.O.O.O.O.O.O.O.O.O.O.O.O.O.O.O.O.O.o.X.q 0 0 0         e.e.e.e.w.w.w.w.",
"e.e.e.e.e.e.e.e.8 8 8 8 F F F H O.O.O.O.O.O.O.O.O.O.O.O.O.O.O.O.O.O.O.O.O.O.O.O.O.O.O.O.O.O.O.X.H F F F 8 8 8 8 w.w.w.w.w.w.w.w.",
"e.e.e.e.e.e.e.e.4 4 4 9 H P L P | X.X.X.O.O.O.O.O.O.O.O.O.O.O.o.O.O.O.O.O.O.O.O.O.O.O.O.X.| X.X.P P L G 9 4 4 4 w.w.w.w.w.w.w.w.",
"e.e.e.e.e.e.e.e.X X X $ F L L P P I I I X.O.o.O.O.O.O.O.X.O.o.o.X.O.O.X.O.O.O.O.O.O.O.O.I I P P L L P F $ X X X w.w.w.w.w.w.w.w.",
"e.e.e.e.e.e.e.e.. . . X F L L P P L L L X.X.X.X.X.X.X.X.@.@.@.@.@.@.@.@.X.X.X.X.X.X.X.X.P L P P L L K F X . . . w.w.w.w.w.w.w.w.",
"w.w.w.w.w.w.w.w.. . . X F P L L K L L L I I I P I P I ` N.Z.Z.Z.Z.Z.Z.N.` I I P I I P P L L L G P L L F X . . . w.e.w.e.w.w.w.w.",
"w.w.w.w.        % % % * S F F H ~ ~ ~ ~ K P K K ~ ~ ~ ~ M.C.C.C.C.C.C.M.[ ~ ~ ~ L P P K ~ ~ ~ ~ F F F S * % % %         w.w.w.w.",
"w.w.w.w.. . . X U T T Y r 0 0 r u.l.l.u.K P P K y.i.l.i.[ _ _ _ _ _ _ [ y.i.i.y.K P P K u.l.l.y.r 0 0 r Y T T U X . . . w.w.w.w.",
"w.w.w.w.. . . X / ^ ^ / 4 4 4 4 r.k.k.j.{ _ _ { x.c.c.x.[ _ _ _ _ _ _ { x.c.c.x.{ _ [ [ j.k.k.j.7 4 4 4 / ^ ^ / X . . X e.w.w.w.",
"w.w.w.w.. . . o $.=.=.$.* X X @ z 1.1.2.m.C.C.C.S.S.S.S.C.C.C.C.C.C.C.C.S.S.S.S.C.C.C.m.2.1.1.B X X X & $.=.=.$.o . . . e.e.e.e.",
"w.w.w.w.. . . o ( #.#.( & o o & l M M N B.V.V.V.V.V.V.V.V.V.V.V.V.V.V.V.V.V.V.V.V.V.V.B.V x M l @ X X & ( #.#.( o . . . e.e.e.e.",
"w.w.w.w.e.      ; & ; ; e w w w -.-.-.-.3.2.2.2.2.2.2.2.2.2.2.2.2.2.2.2.2.2.2.2.2.2.2.3.-.-.-.%.w w w e ; - ; &         e.e.e.e.",
"w.w.w.w.e.      . . . . i W W Q ;.:.>.=.V N N N a a a a M N N N N N N M a a a a M N N V =.>.>.=.! W W n X . . . v.v.v.v.e.e.e.e.",
"e.e.e.e.j j t t X . . X ) *.*.*.:.:.:.:.s.s.s.p.1 O O 1 p.s.s.s.s.s.s.p.> O O > p.s.s.s.>.:.>.:.=.*.*.) o . . . w.w.w.w.w.w.w.w.",
"        W W W m @ : O > $.*.*.*.:.:.>.>.g.g.g.f.; o X ; d.h.h.h.h.h.h.f.; o o ; f.g.g.g.>.:.:.:.*.*.*.$.# . . . w.w.w.w.w.w.w.w.",
"n n y n &.*.*.%.s a a a W W W ! =.>.:.>.>.:.>.:.u e w u g.h.h.h.h.h.h.g.u w w t :.>.>.>.:.:.>.=.Q W W W         w.w.w.w.w.w.w.w.",
"n j j n =.:.:.=.z g g f e w w t ) ) #.#.*.*.*.*.Q W W ! d.g.g.h.g.g.g.d.! W W Q &.&.*.*.#.#.#.) w w w w v.v.v.v.w.w.w.w.w.w.w.w.",
"t j j n =.:.:.;.z g g h @ X X X & & & ; m W W ! &.=.*.*.>.>.>.>.>.>.>.>.=.*.=.$.Q W W n ; & - - X X X X e.e.e.e.w.w.w.w.w.w.e.e.",
"n n n n ) #.#.) s a a p : O O @ $ $ $ = t t t n ) ) ) $.#.#.#.#.$.#.#.#.) #.#.#.E Z n y : O O O O O O :         w.w.w.w.w.w.e.e.",
"        ; & ; & O O O : p a a s D A A A 8 6 8 7 & & & & & & * & - - & & - & - ; F F H J s a a a a a a p O . . . w.w.w.w.e.e.e.e.",
"e.e.e.e.. . . . . . . + s f f k K P L L 0 0 0 8 * $ $ = 1 1 1 1 1 1 1 1 $ $ $ * S H H J C N N N N N N M & X X o w.w.w.w.e.e.e.e.",
"e.e.e.e.                b b b j K L L L G F F F A A A S t.r.r.r.r.r.r.t.S A A D Z Z Z E a.s.s.s.s.s.s.a.b w w w e.e.e.e.e.e.e.e.",
"e.e.e.e.e.e.e.e.e.e.e.e.w w e j A A A A K L P L I I I ` z.c.c.c.c.c.c.x.R R R K i i y W d.g.h.g.g.g.g.d.m n n t e.e.e.e.e.e.e.e.",
"e.e.e.e.e.e.e.e.e.e.e.e.X X + o $ $ $ * F L L P X.X.X.+.A.S.S.S.S.S.S.A.+.o.O.O.n n n n :.>.>.>.>.>.>.:.n n i n e.e.e.e.e.e.e.e.",
"e.e.e.e.e.e.e.e.e.e.e.e.. . . . , < : 1 S J J J ] ' } ' n.B.b.b.b.b.b.n. .'  .R t w w t $.*.*.&.;.*.*.&.n n n i e.e.e.e.e.e.e.e.",
"e.e.e.e.e.e.e.e.e.e.e.e.. . . O 7.6.8.6.x k k c - = = * 2 2 2 2 2 2 2 2 * * * * o o # % n W m W W W W W         e.e.e.e.e.e.e.e.",
"e.e.e.e.e.e.e.e.e.e.e.e.. . . O 7.8.8.6.<.,.,.v < , , : O O O O . . . . . . . . . . . X w n i n j j j n e.e.e.e.e.e.e.e.e.e.e.e.",
"e.e.e.e.e.e.e.e.e.e.e.e.        , , , 3 9.0.0.0.8.8.8.6.a a a d . . . . . . . .                         e.e.e.e.e.e.e.e.e.e.e.e.",
"e.e.e.e.e.e.e.e.e.e.e.e.e.e.e.e.. . . + 6.0.0.0.0.0.0.q.h a a d + . . . . . . . w.w.w.w.w.w.w.w.e.e.e.e.e.e.e.e.e.e.e.e.e.e.e.e.",
"e.e.e.e.e.e.e.e.e.e.e.e.e.e.e.e.. . . + g 1.,.<.1.v <.v : : O O                 e.e.e.w.w.w.w.w.e.e.e.e.w.w.w.w.e.e.e.e.e.e.e.e.",
"e.e.e.e.e.e.e.e.e.e.e.e.e.e.e.e.. . . . a d d a a a a d . . . . w.w.w.w.w.w.w.w.e.w.e.e.w.w.w.w.e.e.e.e.w.w.w.w.e.e.e.e.e.e.e.e.",
"e.e.e.e.e.e.e.e.e.e.e.e.e.e.e.e.        O O O O O O O O         w.w.w.w.w.w.w.w.w.w.w.w.w.w.w.w.e.e.e.e.w.w.e.e.e.e.e.e.e.e.e.e.",
"e.e.e.e.e.e.e.e.e.e.e.e.e.e.e.e.e.e.e.e.. . . . . . . . e.e.e.e.w.w.w.w.w.w.w.w.w.w.w.w.w.w.w.w.e.e.e.e.w.w.w.e.e.e.e.e.e.e.e.e."
};
