/* XPM */
static char *_de7ab281796413afae8d9490badd925W058Xz6gRGPaKjMg[] = {
/* columns rows colors chars-per-pixel */
"64 64 10 1 ",
"  c #6FC8A0",
". c #70C9A1",
"X c #6FC9A0",
"o c #6FC9A1",
"O c #3DB189",
"+ c #3DB188",
"@ c #A1E1C1",
"# c #A0E0C0",
"$ c #A1E0C1",
"% c white",
/* pixels */
"    ............XXXX    oooo....XXXX....    ............XXXX....",
"    ............XXXX    oooo....XXXX....    ............XXXX....",
"    ............XXXX    oooo....XXXX....    ............XXXX....",
"    ............XXXX    oooo....XXXX....    ............XXXX....",
"        ................oooooooo    ....oooo............oooo....",
"        ................oooooooo    ....oooo............oooo....",
"        ................oooooooo    ....oooo............oooo....",
"        ................oooooooo    ....oooo............oooo....",
"....        oooo........    ............oooo........    XXXXoooo",
"....        oooo........    ............oooo........    XXXXoooo",
"....        oooo........    ............oooo........    XXXXoooo",
"....        oooo........    ............oooo........    XXXXoooo",
"........oooo    ....OOOO............................    ........",
"........oooo    ....OOOO............................    ........",
"........oooo    ....OOOO............................    ........",
"........oooo    ....OOOO............................    ........",
"........OOOO    ....++++XXXX....++++        XXXXoooo    ........",
"........OOOO    ....++++XXXX....++++        XXXXoooo    ........",
"........OOOO    ....++++XXXX....++++        XXXXoooo    ........",
"........OOOO    ....++++XXXX....++++        XXXXoooo    ........",
"............++++............OOOO............oooo....oooo    ....",
"............++++............OOOO............oooo....oooo    ....",
"............++++............OOOO............oooo....oooo    ....",
"............++++............OOOO............oooo....oooo    ....",
"....XXXX....    ............................    ....        ....",
"....XXXX....    ............................    ....        ....",
"....XXXX....    ............................    ....        ....",
"....XXXX....    ............................    ....        ....",
"........    ................oooo    ....XXXX    XXXXoooo....oooo",
"........    ................oooo    ....XXXX    XXXXoooo....oooo",
"........    ................oooo    ....XXXX    XXXXoooo....oooo",
"........    ................oooo    ....XXXX    XXXXoooo....oooo",
"........oooo....XXXX....XXXX    XXXX    oooo....    ....        ",
"........oooo....XXXX....XXXX    XXXX    oooo....    ....        ",
"........oooo....XXXX....XXXX    XXXX    oooo....    ....        ",
"........oooo....XXXX....XXXX    XXXX    oooo....    ....        ",
"oooo        ....XXXXoooooooo....    ....    @@@@........XXXX....",
"oooo        ....XXXXoooooooo....    ....    @@@@........XXXX....",
"oooo        ....XXXXoooooooo....    ....    @@@@........XXXX....",
"oooo        ....XXXXoooooooo....    ....    @@@@........XXXX....",
"    ....XXXXoooooooo....XXXX....####XXXXXXXX@@@@........####....",
"    ....XXXXoooooooo....XXXX....####XXXXXXXX@@@@........####....",
"    ....XXXXoooooooo....XXXX....####XXXXXXXX@@@@........####....",
"    ....XXXXoooooooo....XXXX....####XXXXXXXX@@@@........####....",
"........    ....    XXXX............####....oooooooo$$$$oooo    ",
"........    ....    XXXX............####....oooooooo$$$$oooo    ",
"........    ....    XXXX............####....oooooooo$$$$oooo    ",
"........    ....    XXXX............####....oooooooo$$$$oooo    ",
"    ........oooo    oooooooo....    ....XXXX....    ....    ....",
"    ........oooo    oooooooo....    ....XXXX....    ....    ....",
"    ........oooo    oooooooo....    ....XXXX....    ....    ....",
"    ........oooo    oooooooo....    ....XXXX....    ....    ....",
"............    oooooooooooo....XXXX    ........................",
"............    oooooooooooo....XXXX    ........................",
"............    oooooooooooo....XXXX    ........................",
"............    oooooooooooo....XXXX    ........................",
"....................    oooo....                ................",
"....................    oooo....                ................",
"....................    oooo....                ................",
"....................    oooo....                ................",
"....................XXXX    ....        XXXXoooo....oooo........",
"....................XXXX    ....        XXXXoooo....oooo........",
"....................XXXX    ....        XXXXoooo....oooo........",
"....................XXXX    ....        XXXXoooo....oooo........"
};
