/* XPM */
static char *_20573fd53de4f95d090642276a5c451PFuu4xzcWyfA27gS[] = {
/* columns rows colors chars-per-pixel */
"64 64 187 2 ",
"   c None",
".  c #030405",
"X  c #090606",
"o  c #0B0A05",
"O  c #0F0C09",
"+  c #05050C",
"@  c #150807",
"#  c #131305",
"$  c #1C1C04",
"%  c #14110A",
"&  c #1A160C",
"*  c #1E190E",
"=  c #181615",
"-  c #220907",
";  c #340004",
":  c #3C0A04",
">  c #211F05",
",  c #221C0E",
"<  c #241D11",
"1  c #232204",
"2  c #2B2A04",
"3  c #282702",
"4  c #382B04",
"5  c #343204",
"6  c #383704",
"7  c #3D3B04",
"8  c #39340B",
"9  c #292112",
"0  c #342915",
"q  c #392E16",
"w  c #3D3119",
"e  c #3B3016",
"r  c #262628",
"t  c #393A3D",
"y  c #481A04",
"u  c #7E0002",
"i  c #403E04",
"p  c #4D3E1D",
"a  c #413419",
"s  c #553E03",
"d  c #3E4204",
"f  c #444204",
"g  c #4C4A04",
"h  c #494507",
"j  c #524F05",
"k  c #545103",
"l  c #595703",
"z  c #5E5B03",
"x  c #5B550B",
"c  c #52421E",
"v  c #554B13",
"b  c #615E03",
"n  c #615A0B",
"m  c #695B19",
"M  c #656303",
"N  c #6D6A03",
"B  c #686503",
"V  c #716E03",
"C  c #747103",
"Z  c #7F7B03",
"A  c #7A7505",
"S  c #786919",
"D  c #564421",
"F  c #5C4923",
"G  c #504430",
"H  c #614D25",
"J  c #695327",
"K  c #6C552A",
"L  c #6F5829",
"P  c #665126",
"I  c #735B2B",
"U  c #785F2D",
"Y  c #725C27",
"T  c #785E30",
"R  c #7C622E",
"E  c #786228",
"W  c #7B6030",
"Q  c #777526",
"!  c #3F3F40",
"~  c #404042",
"^  c #666667",
"/  c #8A0002",
"(  c #9D0301",
")  c #B90201",
"_  c #BF3B3F",
"`  c #C60101",
"'  c #D50000",
"]  c #DB0000",
"[  c #DD0C00",
"{  c #D41400",
"}  c #DF1900",
"|  c #CC2800",
" . c #D33B00",
".. c #E12C00",
"X. c #E53B00",
"o. c #864202",
"O. c #817D04",
"+. c #817407",
"@. c #87741F",
"#. c #80662E",
"$. c #82692D",
"%. c #8D7529",
"&. c #8D7627",
"*. c #927C25",
"=. c #B67320",
"-. c #E64300",
";. c #E84200",
":. c #EB7000",
">. c #C6423F",
",. c #E04449",
"<. c #858102",
"1. c #898502",
"2. c #8E8A02",
"3. c #928E02",
"4. c #968608",
"5. c #959102",
"6. c #999502",
"7. c #9E9902",
"8. c #AF8A01",
"9. c #A39D03",
"0. c #A39404",
"q. c #AA961F",
"w. c #AE9B1D",
"e. c #A59713",
"r. c #A6A102",
"t. c #ABA602",
"y. c #ACA20B",
"u. c #AFAB02",
"i. c #B2AC02",
"p. c #B1A502",
"a. c #B6B101",
"s. c #BBB402",
"d. c #BEB901",
"f. c #B4A21B",
"g. c #BAA916",
"h. c #9C8722",
"j. c #A18C21",
"k. c #A89320",
"l. c #EE8400",
"z. c #F19400",
"x. c #C3BD02",
"c. c #C9BD0D",
"v. c #C5B613",
"b. c #CABB12",
"n. c #DEB710",
"m. c #F4A800",
"M. c #E7A91B",
"N. c #DE9123",
"B. c #EFA023",
"V. c #C7C101",
"C. c #CAC401",
"Z. c #CEC801",
"A. c #CEC409",
"S. c #D3CC01",
"D. c #D7C90E",
"F. c #D8CB0E",
"G. c #D7D001",
"H. c #DBD401",
"J. c #DFD801",
"K. c #DFD30B",
"L. c #D2C310",
"P. c #FACA00",
"I. c #E3DC01",
"U. c #E5DA0A",
"Y. c #EADF08",
"T. c #E3D709",
"R. c #FBDE00",
"E. c #F9D20F",
"W. c #E7E000",
"Q. c #EBE300",
"!. c #EEE800",
"~. c #F1E605",
"^. c #FEE600",
"/. c #F4EC01",
"(. c #FCEE01",
"). c #FCE209",
"_. c #F7F000",
"`. c #FFF700",
"'. c #FFFA00",
"]. c #3DB189",
"[. c #6FC8A0",
"{. c #70C9A1",
"}. c #70C9A1",
"|. c #939390",
" X c #A0E0C0",
".X c gray86",
"XX c gray93",
/* pixels */
"[.[.[.[.[.[.[.}.}.}.}.}.}.}.#.#.[.[.[.[.[.[.[.[.[.[.[.[.}.}.}.}.[.[.[.[.[.[.[.[.[.[.[.[.[.}.}.}.}.}.}.}.}.}.}.}.[.[.[.[.}.}.}.}.",
"[.[.[.[.[.[.[.[.}.}.}.}.    p F   [.[.[.[.[.[.[.[.[.[.[.}.}.}.}.[.[.[.[.[.[.}.[.[.[.[.[.}.}.}.}.}.}.}.}.}.}.}.}.[.[.[.[.}.}.}.}.",
"[.[.[.[.[.[.[.[.}.}.}.}.U I % 0 R   [.[.[.[.[.[.[.[.[.[.}.}.}.}.[.[.[.[.}.}.}.}.[.[.[.[.}.}.}.}.}.}.}.}.}.}.}.}.[.[.[.[.}.}.}.}.",
"[.[.[.[.[.[.[.[.}.}.}.}.  < X @ <   [.[.[.[.[.[.[.[.[.[.}.}.}.}.[.[.[.[.}.}.}.}.[.[.[.[.}.}.}.}.}.}.}.}.}.}.}.}.[.[.[.[.}.}.}.}.",
"[.[.[.[.[.[.[.[.}.}.}.  & . . . .   [.}.}.}.}.}.[.[.}.}.}.}.}.}.}.}.}.}.}.}.}.}.[.[.[.[.}.}.[.[.}.}.}.}.}.}.}.}.}.}.}.}.}.}.}.}.",
"[.[.[.[.[.[.[.[.}.}.  #.a . . . .   }.}.}.}.}.}.[.[.}.}.}.}.}.}.[.}.}.}.}.}.}.}.[.[.[.[.}.[.[.[.}.}.}.}.}.}.}.}.}.}.}.}.}.}.}.}.",
"[.[.[.[.[.[.[.[.}.}.  q , o a m 5.@.  }.}.}.}.}.[.[.[.}.}.}.}.}.[.[.}.}.}.}.}.}.[.[.  R R 9 . . c   [.}.}.}.}.}.}.}.}.}.}.}.}.}.",
"[.[.[.[.[.[.[.[.}.}.  . . # E g.`.*.K }.}.}.}.}.[.[.[.}.}.}.}.}.[.[.}.}.}.}.        R R L 9 . . p R }.}.}.}.}.}.[.}.}.}.}.}.}.}.",
"}.}.}.}.[.[.[.[.[.[.  . .   Y././.g O [.[.}.}.}.[.[.[.[.}.}.}.}.[.}.}.}.}.  I % . X     # o . . c R [.[.[.[.[.[.[.[.[.[.[.[.[.[.",
"}.}.}.}.[.[.[.[.[.    q     `.`._.7 . [.}.}.}.}.[.[.[.[.}.}.}.}.}.}.      c I % . o   Z . . . X e $.}.[.[.[.[.[.[.[.[.[.[.[.[.[.",
"}.}.[.}.[.[.[.[.[.R U R     `.`./.f o }.}.}.}.}.[.[.[.[.}.}.}.}.[.[.R K O           '.i.o . . X   }.[.[.[.[.[.[.[.[.[.[.}.}.[.[.",
"}.}.[.[.[.[.[.[.[., <       `.`.`.Z.5.o + . . . . .   [.}.}.[.#.H o           `.`.`.'.u.o . .     }.[.[.[.[.[.[.[.[.[.[.}.}.}.[.",
"}.}.}.}.}.}.}.}.[.. .       './.T.U.y.o X . . 2 7 i 6         I H o           `.`.`.'.s.9 * * }.}.}.}.}.}.}.}.[.}.}.}.}.}.}.}.}.",
"}.}.}.}.}.}.}.}.[.. +     `.`.L.$.$.R         !./._.<.. . . .           `.`.'.`.`.`.'.L.R W R }.}.}.}.}.}.}.[.[.}.}.}.}.}.}.}.}.",
"}.}.}.}.}.}.}.}.[.. $ H.L.f.W.              `.'.'.'.Z.3.6.5.6.G.'.'.`.`.`.`.`.`.`.`.'.x.e F   }.}.}.}.}.}.  + o   }.}.}.}.}.}.}.",
"}.}.}.}.}.}.}.[.[.O 8 Q.g.T                 `.`.`.`.`.`.'.'.'.'.`.`.`.`.'.`.`.`.`.`.!.7..   [.}.}.}.}.}.  . . o   }.}.}.}.}.}.}.",
"}.}.}.}.}.}.}.}.].K L                 `.`.`.`.'.`.`.`.`.`.`.`.`.`.`.`.`.`.`.`.`.'._.k 1   [.[.[.[.[.[.  X       X . }.}.}.}.}.}.",
"}.}.}.}.}.}.}.}.  k.f.              `.`.`.`.`.`.`.`.`.`.`.`.`.`.'.`.`.'.'.`.`.`.G.5.5   [.[.[.[.[.[.[.  .         .       }.}.}.",
"}.}.}.}.}.}.}.  R v.`.          `.`.`.`.`.`.`._._./._.`.`.`.`.'.`.`.`.`.`.`.`._.2..   [.[.[.[.[.[.[.[.  X           . o o [.}.}.",
"}.}.}.}.}.}.}.  , m w./.`.`.`.`.`.`.`.`.`.'.'.6.d f 7.'.'.`.`.`.`.`.`.'.'.'.!.z 6   [.[.}.}.[.[.[.  X .   /.    '.I.  t.r.#   }.",
"}.}.}.}.}.}.    ~ G E !.'.`.`.`.`.`.`.`.'./.V.Q t . k C./.`.`.`.`.'.`._.V.x.i.>   }.}.}.[.[.[.[.[.  X .   '.`.  '.'.  '.G.g 5   ",
"}.}.}.}.}.}.. ! XX^ 5 W.`.`.'.`.'.`.`.'.'.Z.$ |..Xr . $ S.'.`.`.`.`.`.G.> O #   [.}.}.}.[.[.[.[.}.  . X       `.    '.    _.V . ",
"}.}.}.}.}.}.. = ^ r 3 W.'.'.'.`.`.`.`.`.'.C.# ! ^ O . # S.`.`.`.`.`.`.!.7.g .   }.}.}.}.[.[.[.[.  X         `.  `.`.  `.`.'.V . ",
"}.}.}.}.}.  1 $ . # f Q./.W._.`.`.`.`.`.'.Z.2 # . . # 5 G.'.`.`.`.`.`.`.'.O.O   }.}.}.}.[.[.[.[.X .       '.`.  `.'.  `.`.`.+.@ ",
"}.}.}.}.  $.c.t.o <.W.`.2.5 H.'.`.'.`.`.`._.W.b . . M I._.'.'.`.`.`.`.`.`.f.J   }.}.}.}.[.[.[.[.. .     `.'.`.`.`.`.`.`.'.'.N._ ",
"}.}.}.}.  c A.I.N V.'.'.i.C W.`.`.`.`.`.`.`.'.t.M M u.`.m.z.z.^.'.`.`.`.'.F.w.    }.}.}.[.[.[.  k C   '.`.`.`.`.`.`.`.`.Q.9.=.,.",
"}.}.}.}.  o a.'.`.`.`._._.`._._._.`.`.`._._.`.`.`.`.`.R...] [ m.`.`.`.`.`.`.~.&.U }.}.}.[.[.  . 5.'.`.`.`.`.`.`.`.`.`.`.C.%   [.",
"}.}.}.}.  o a.'.`.`.I.k r./.M d g G.'.'.Z M _.`.`.`.m.X.[ ] ] ..:.`.`.`.`.`.Q.8 = }.}.}.[.[.  . 5.'.'.`.`.`.'.`.`.'.'.<.7     }.",
"}.}.}.}.  o 8.P.`.`.I.g O.i.y ; : 6.V.d.B M _.`.`.`.l.] ] ] ] ] X.(.`.`.`.'.!.l h   [.[.[.    d a.'.`.`.`.`.`.`.'.!.x.j . [.[.[.",
"}.}.}.}.  X ( ;.(.`.`._.O.@ ) ' ` : o # t._.`.`.`.'.l.] ] ] ] ' -.`.`.`.`.`.`._.v.R   [.[.. 7 Q._.`.`.'.`.`.`.`.'.d.#   [.[.[.[.",
"}.}.}.}.  X ( X.(.`.`.'.Z.4.{ ] ] ; 2 5.H.'.`.`.`.'.P.l.} ] ] / o._.`.`.`.`.`.'.y.0   [.[.. 7 /.'.`.`.`.`.`.'._.3.x     }.[.[.[.",
"}.}.}.}.  X /  .(.`.`.`.`.^.| ` ) y M _.`.`.`.`.`.`.'.(.-.{ ) ; d H._.'.`.`.`.'.6.O   [.[.. 7 /.'.`.`.`.`.`._.G.7 . }.}.}.[.[.[.",
"}.}.}.}.  . @ h _.`.`.`.'.Q.y @ - u.!.`.`.`.`.`.`.`.`.`.(.8.-     1 u.'.`.`.`.'.v.J * . }.. 7 /.`.`.`.`.`.'.t.1   [.[.[.[.[.[.[.",
"}.      S B > 7 /.'.`.`.'./.O.B N J.'.`.`.`.'.`.`.'.Z.6.6.C .     . V t._.`.`.L.k.U * . [.  5 5.G.`.`.`.'.'.7.. .   [.[.[.[.[.[.",
"}.  o H q.(.k d _.`.`.'.'.'.'.`.`.`.`.`.`.`.`.`.`.'.2.o # #         . 5 Q.'.~.*.R E & . }.}.  . 6._.`.`._.'.9.# # o [.[.[.[.[.[.",
"#.P       `.S.Z._.`.`.`.`._.`.`.`.`.`.`.'.`.`.'.`.'.I.d.d.Z.`.`.`.'.g 2 Q.'.`.U.f.I = . }.}.}.  6 M !.'.'.'.W.d.x.6.o   [.[.[.[.",
"H H       `.'.'.`.`.`.`.`.`.`.'.`.`.`.`.`.`.`.`.`.`.'.'.'.'.`.'.!.V.N M !.'.`.'.D.h.v 7    X X X. > n.).'.'.'.`.G.2.o   [.}.}.}.",
"o X   `.`.`.`.`.'.`.`.`.`.'.`.`.`.`.`.`.`.'.`.`.'.`.`.`.`.`.`.'.d.% 9._.`.`.`.`.`.(._.t.o    X X. - >.B.'.'.`._.g o .   [.[.}.}.",
"    $ I.'.`.`.`.`.`.'.`.`.`.`.`.`.'.`.`.`.`.`.`.`.`.`.'.`.`.`.`.W.6.H.`.`.`.`.'.'.'.'.u.X     . B 9.B.E.'.'.V.B 5       }.}.}.}.",
"[.  % a.!.`.`.'.`.`.`.`.`.`.`.'.`.`.`.`.`.`.`.'.`.`.`.`.`.`.`./.~./.~.~.`.`.`.`._.~./.9.o     1 r.'.'./.J.W.3..   [.}.}.}.}.}.}.",
"[.[.  $ N `.`.`.`.`.`.`.`.`.`.`.`.`.`.`.`.`.'.`.`.`.'.'.`.'.'.q.%.%.%.j._.'.`.'.L.%.%.P X . 7 G._.`.`.5.> 1 1    X X X X[.[.[.[.",
"[.[.[.  x b.r.u._.`.`.`.`.`.`.`.`.`.'.`.`.`.`.`.`.`.S.7.!.J.6.&.W W W &.v.U._.L.q.W R D X . 6 5.G.'.'.<.. .   }. X X X X[.[.[.[.",
"[.[.[.[.  W < 7 !.'.`.`.`.`.'.`.`.`.`.`.`.`.`.`.`._.1.# Z.r..           #.v./.*.R R R F .     . 5.'.'.1.o   }.}. X X X X}.}.}.}.",
"[.[.[.[.}.      h.K.'.`.`.`.`.`.'.`.`.`.'.`.`.'.I.l 6   7 6   . .     _.T.~._.U.f.W R D . . . . 6.'.`.I.a.2   }. X X X X}.}.}.}.",
"}.}.}.}.}.}.}.  R e.C._.`.`.`.`.`.`.`.`.`.`.`.'.J.$ 2   g k   & %   '.`.'.`.'.'.F.h.h.m o = < , 4.K.V.x.s.2    X[.[.[.[.[.[.[.[.",
"}.}.}.}.}.}.}.  R q 5 W.'.`.'.`.`.'.`.`.`.`.`.'.J.$ C `./._._.d f _.`.`.`.`.`.`.`._.`.u.o D E W R E & O O    X X[.[.[.[.[.[.[.[.",
"}.}.}.}.}.}.}.}.  & 2 W.`.`.`.`.`.`.`.`.`.`.`.'.J.$ C '.`.`.`.i.1.N C.`.`.'.`.`.'._.2.n p L K e q 0        X X X[.[.[.[.[.[.[.[.",
"}.}.}.}.}.}.}.}.[.. 2 Q.'.`.`.`.'.`.`.'.`.`.`.'.I.7 O.~.`.`.'.'.x.o 9.`.`.`.`.`.`./.6 * L I F X . . [.[. X X X X[.[.[.[.[.[.[.[.",
"[.[.[.[.}.}.}.}.}.. 2 Y.`.`.`.`.`.`.`.`.`.`.`.`._.W.g.h.Q.'.`.'.d.o r.'.`.`.`.`.'._.7 X % % #       [.[.}.}.}.}.[.[.[.[.[.}.}.}.",
"[.[.[.[.}.}.}.}.[.0 v Q.`.`.`.`.`.`.`.'.`.`.'.`.'.'.y.c K.'.'.'.H.N V.'.'.`.`.`.G.2.1 . . .   }.[.[.[.[.}.}.}.}.[.[.[.[.[.}.}.}.",
"[.[.[.[.}.}.}.}.[.R &.Q._.`.`.`.'.`.`.`.`.`.`.`.`.'.2.# Z.'.`._._.`.'.`.`.`.`._.3.. X . [.[.}.}.[.[.[.[.}.}.}.}.[.[.[.[.}.}.}.}.",
"[.[.[.[.}.}.}.}.[.    h N   `.`.`.`.`.`.`.'.`.`.`.`.1.# G.'.`.C N _.`.`.`.'.!.z 6       }.}.}.}.[.[.[.[.}.}.}.}.[.[.[.[.}.}.}.}.",
"[.[.}.}.}.}.}.}.}.}.  .     `.`.`.`.`.'.`.`.`.`.`.'.t.g t.x.d.z N _.`.`.`.J.u.1   }.}.}.[.[.[.}.[.}.}.}.}.}.}.}.}.}.}.}.}.}.}.}.",
"[.[.}.}.}.}.}.}.}.[.  X .       `.`.`.`.'.`.`.`.`.`._.W.6 o # a.`.`.`.'.'.<.o   [.[.}.}.[.[.[.}.}.}.}.}.}.}.}.}.}.}.}.}.}.}.}.}.",
"}.}.}.}.}.}.}.}.}.}.}.  X X                   '.`.`.'._.t.5.6.W.H.V N C w.S   [.}.}.}.}.[.[.[.[.}.}.}.}.}.}.}.}.}.}.}.}.}.}.}.}.",
"}.}.}.}.}.}.}.}.}.}.[.[.  .                   `.`.'.`.`.`._.W.W.u.. . & I   [.[.}.}.}.}.[.[.[.[.}.}.}.}.}.}.}.}.}.}.}.}.}.}.}.}.",
"}.}.}.}.}.}.}.}.}.}.}.}.}.  . . X . . . . .   '.'.`.'.'.'.i.1 1 1         [.[.[.[.[.[.[.[.[.[.[.}.}.}.}.}.}.}.}.}.}.}.}.}.}.}.}.",
"}.}.}.}.}.}.}.}.}.}.}.}.}.}.. X . X . o o .   C t._.U.v.r.M . .   [.[.[.[.[.[.[.[.[.[.[.[.[.[.[.}.}.}.}.}.}.}.}.}.}.}.}.}.}.}.}.",
"}.}.}.}.}.}.}.}.}.}.}.}.}.}.}.}.}.}.}.}.[.  . . 1 I.v.R , o .   [.[.[.[.[.[.[.[.[.[.[.[.[.[.[.[.}.}.}.}.}.}.}.}.}.}.}.}.}.}.}.}.",
"}.}.}.}.}.}.}.}.}.}.}.}.}.}.}.}.}.}.}.}.[.[.  . 1 I.~.K.C.Z X   [.[.[.[.[.[.[.[.[.[.[.[.[.[.[.[.}.}.}.}.}.}.}.}.}.}.}.}.}.}.}.}.",
"}.}.}.}.}.}.}.}.}.}.}.}.}.}.}.}.}.}.}.}.[.[.[.. > J.J.V.`.6..   [.[.[.[.[.[.[.[.}.[.[.[.[.[.[.[.}.}.}.}.[.[.[.[.}.}.}.}.}.}.}.}.",
"}.}.}.}.}.}.}.}.}.}.}.}.}.}.}.}.}.}.}.}.[.[.[.X .     #     .   [.[.[.[.[.[.[.[.}.}.[.[.}.[.[.[.}.}.}.}.[.[.[.[.}.}.}.}.}.}.}.}.",
"}.}.}.}.}.}.}.}.}.}.}.}.}.}.}.}.}.}.[.[.[.[.[.    . .   . .     [.[.[.[.[.[.[.[.}.}.}.}.}.}.[.[.}.}.}.}.[.[.[.[.}.}.}.}.}.}.}.}.",
"}.}.}.}.}.}.}.}.}.}.}.}.}.}.}.}.}.}.[.[.[.[.}.}.  . .   . . [.[.[.[.[.[.[.[.[.[.}.}.}.[.}.}.[.[.}.}.}.}.[.[.[.}.}.}.}.}.}.}.}.}."
};
