/* XPM */
static char *fde0e0c1bea847cbfced7564171f1a98pl2Qfbd0fAdxu7oi[] = {
/* columns rows colors chars-per-pixel */
"64 64 173 2 ",
"   c None",
".  c #010000",
"X  c #0B0402",
"o  c #0A0B05",
"O  c #140604",
"+  c #190705",
"@  c #160901",
"#  c #1C0A02",
"$  c #171609",
"%  c #191709",
"&  c #210C04",
"*  c #240A08",
"=  c #2B0C0A",
"-  c #2D0F06",
";  c #330E0B",
":  c #380F0C",
">  c #271002",
",  c #2C1203",
"<  c #211C0A",
"1  c #331403",
"2  c #3C1603",
"3  c #3E1904",
"4  c #3B100D",
"5  c #34100A",
"6  c #21200C",
"7  c #2A2910",
"8  c #373616",
"9  c #441B04",
"0  c #4B1E03",
"q  c #43130F",
"w  c #441805",
"e  c #521F03",
"r  c #541B0D",
"t  c #4C1511",
"y  c #471410",
"u  c #531713",
"i  c #571813",
"p  c #5B1914",
"a  c #621B15",
"s  c #691D17",
"d  c #6D1E18",
"f  c #721F19",
"g  c #4F2106",
"h  c #552205",
"j  c #5C2607",
"k  c #5C3D13",
"l  c #632704",
"z  c #652906",
"x  c #692A06",
"c  c #6D250E",
"v  c #67230C",
"b  c #742E06",
"n  c #792F05",
"m  c #762C09",
"M  c #7C2E08",
"N  c #7B3106",
"B  c #7D3308",
"V  c #6E2114",
"C  c #75201A",
"Z  c #7B221B",
"A  c #732117",
"S  c #6C3F25",
"D  c #49441A",
"F  c #72581E",
"G  c #74722E",
"H  c #843405",
"J  c #8B3606",
"K  c #8E3807",
"L  c #843508",
"P  c #893708",
"I  c #8C3808",
"U  c #933A06",
"Y  c #9B3D07",
"T  c #953C08",
"R  c #9B3E08",
"E  c #83241D",
"W  c #8A261E",
"Q  c #A13E06",
"!  c #8F2720",
"~  c #932921",
"^  c #9C2B22",
"/  c #902720",
"(  c #A42D24",
")  c #AA2F26",
"_  c #AE3026",
"`  c #B13027",
"'  c #B53228",
"]  c #BB3329",
"[  c #C3362B",
"{  c #C9372C",
"}  c #CE392E",
"|  c #D33A2F",
" . c #D73B30",
".. c #DC3C31",
"X. c #E53F33",
"o. c #E33E32",
"O. c #8D400B",
"+. c #9B4C0F",
"@. c #A44007",
"#. c #AC4407",
"$. c #A34108",
"%. c #AC4408",
"&. c #B34607",
"*. c #B24608",
"=. c #B74808",
"-. c #BD4A08",
";. c #BB4908",
":. c #B64807",
">. c #B65F15",
",. c #954F27",
"<. c #C14C08",
"1. c #C64E08",
"2. c #C34C08",
"3. c #C84F09",
"4. c #C94F08",
"5. c #CE5109",
"6. c #D35309",
"7. c #DA5509",
"8. c #DD5609",
"9. c #D95509",
"0. c #DB590B",
"q. c #E15809",
"w. c #DD6B16",
"e. c #DE6210",
"r. c #D5781F",
"t. c #E74033",
"y. c #EA4034",
"u. c #EE4135",
"i. c #EB4134",
"p. c #F34336",
"a. c #F14235",
"s. c #F44336",
"d. c #F54336",
"f. c #F64336",
"g. c #F74437",
"h. c #F64436",
"j. c #F44336",
"k. c #F84437",
"l. c #F94437",
"z. c #FA4537",
"x. c #F94437",
"c. c #FC4538",
"v. c #815941",
"b. c #8D8736",
"n. c #918B37",
"m. c #9B953B",
"M. c #A59E3F",
"N. c #E18323",
"B. c #E28826",
"V. c #E5A134",
"C. c #E9B43F",
"Z. c #B5AE45",
"A. c #BFB748",
"S. c #C3BB4A",
"D. c #CEC54E",
"F. c #D0C74F",
"G. c #D7CE52",
"H. c #DFD755",
"J. c #E8C348",
"K. c #EDD24F",
"L. c #E8D351",
"P. c #EEE45A",
"I. c #F2E95C",
"U. c #F8EE5E",
"Y. c #F3E55A",
"T. c #6FC8A0",
"R. c #6FC9A0",
"E. c #6FC9A1",
"W. c #6FC8A0",
"Q. c #70C9A1",
"!. c #70C9A1",
"~. c #BBA497",
"^. c #A1E0C1",
/* pixels */
"T.T.T.T.Q.Q.Q.Q.Q.Q.Q.Q.Q.Q.  . . . . . T.T.T.T.T.E.E.E.!.!.!.!.T.T.R.R.!.!.!.!.T.T.T.T.T.Q.Q.Q.Q.Q.Q.Q.Q.Q.Q.Q.T.T.R.R.!.!.!.!.",
"T.T.T.T.Q.Q.Q.Q.Q.Q.        = a s s s i   T.T.T.T.E.E.E.!.!.!.!.T.T.R.R.!.!.!.!.T.T.T.T.Q.Q.Q.Q.            Q.Q.T.T.R.R.!.!.!.!.",
"T.T.T.T.Q.Q.Q.Q.Q.  O O X . y u.h.f.u.^ .   Q.T.E.E.E.E.!.!.!.E.E.E.E.E.!.T.!.!.T.T.T.T.Q.Q.Q.  O O O O O O   Q.T.E.E.R.!.!.!.!.",
"T.T.T.T.Q.Q.Q.Q.  * [ } y u  .p.f.x.~ O . . .   E.E.E.E.!.!.!.E.E.E.E.  . . . . . T.T.T.Q.  . O '  .} } { { ; . . T.E.E.!.!.!.!.",
"T.T.T.T.T.T.T.  : E X.l.p a g.s.f.) C d d d d q   E.E.E.E.E.E.E.T.T.  : V d d d i     T.  q d Z o.h.g.g.g.u.! d u   !.!.!.!.!.!.",
"T.T.T.T.T.T.T.. u s.g.s.p a s.p...t E l.x.f.l.Z O E.E.E.E.E.E.E.T.Q.X p p.h.x.c.( O +   O Z l.g.g.p.s.s.s.s.s.c.^ #   !.!.!.!.!.",
"T.T.T.T.T.T.T.. u s.g.g.p a l.o.y ^ X.s.s.x.s.X.! . T.E.E.E.E.E.T.. d ..p.p.h.h.X. .[ = ! o.s.s.p.p.p.s.s.s.s.s.y.) X   !.!.!.!.",
"T.T.T.T.T.T.T.. u o.W Z ; = ^  .* ( l.s.o.! Z { ^ . T.E.E.E.E.E.T.. Z x.p.g.p.p.s.x.X.= ^ x.s.s.p.g.p.s.s.s.s.s.h.[ X   !.!.!.!.",
"Q.Q.Q.      T.. t ' * + + + q ] * ( l.u.[ = O ^ ^ . T.T.Q.Q.Q.Q.  + E x.s.s.s.s.s.p.{ q ( l.g.s.s.s.s.p.s.s.s.s.h.{ *   Q.T.E.E.",
"Q.Q.  . . .   . . : {  . . .) * . ) c.] : [ | u.^ . T.Q.Q.Q.Q.Q.. ^ X.g.s.s.s.s.x.{ : ' y.s.p.s.s.s.s.g.s.s.s.s.g.u.{ *   Q.E.E.",
"Q.  9 x x x , u Z ! u.g.f.l. .E Z C Z u *  .c.` t . . .   Q.Q.Q.. ) x.s.s.s.s.s.g.[ + { l.s.s.s.s.l.' ^ p.s.s.s.p.g.o.=   E.E.E.",
"Q.. l q.9.<.9 ~ c.l.s.s.s.s.s.s.g.a O + : [  .d + # # #         * ' x.s.s.s...y.g.[ * { l.s.s.s.p.o.f p p.s.s.s.p.g...=   E.E.E.",
"Q.. l q.2.1 ( i.s.s.s.s.s.s.s.s.s.o. .o.[ = O n 1.2.2.2.0 . . + ] p.f.s.s.u.y ~ c.{ + { l.g.s.s.u.p Z X.l.g.g.l.g.x.o.=   !.!.!.",
"Q.. 9 #.;.# ' l.s.s.s.s.s.s.f.f.s.^ f f A b x #.9.7.8.9.Y b h X a f ' h.s.u.^ C f f E o.s.s.s.s.X.q Z } f d f d (  .f *   !.!.!.",
"T.. > L ;.& ^ X.s.s.s.s.g.p.u.| } r # + 2 1.7.7.9.9.3.3.3.5.+.O X . Z x.s.s.x.Z X = X.s.s.s.s.s.p.q d ^ * * * + s ( X   !.!.!.!.",
"Q.. > L ;.+ X / l.s.s.p.p.x.{ # @ J 3.1.1.9.9.9.9.1.b z x z l h h @ C h.s.s.s.y.! = X.g.s.s.s.s.p.q . i  .......! O .   !.!.!.!.",
"Q.  # 9 K N # E l.s.s.l.( a V b n ;.9.9.9.9.9.&.T P j j j j j j j + Z l.s.s.s.l.^ = X.s.s.s.s.X.Z Z E ) s.s.l.l.{ E Z *   Q.Q.Q.",
"Q.Q.  @ z =.1 E l.s.p.| a + 0 6.8.9.9.9.9.9.4.J h j j j j j j j g - Z  .p.s.s.l.~ ; X.s.s.s.u.] 4 ] c.l.s.s.s.s.l.l.X.t   Q.Q.Q.",
"Q.Q.  + j z @ E l.s.X.q H 4.4.9.9.9.9.9.9.9.L j j j j j j j j h @ ( Z u p.p.s.l.~ ; X.s.s.l.] ; [ p.g.s.s.s.s.s.s.s.p.o.t   Q.Q.",
"Q.Q.  # h , z c ~ o.f m &.8.8.9.9.9.9.9.5.T z j j j j j j m $.T + ) Z q p.s.s.( f ( u.p.g.' f ~ X.s.s.s.s.s.s.l.g.s.s.s.' i   Q.",
"!.!.  # 9 , *.n p ) 2 &.0.5.>.2.9.9.9.9.5.B b b b b b j x Y 9.Q w ] W p } u.s.a i g.p.s.x.E : u.s.s.s.s.s.s.} { { | p.p.x.E . T.",
"!.!.E.  # :.9.6.L 1 ;.9.0.%.v b 1.9.9.9.9.5.5.5.4.9.3.b $.9.%.- [ p.u.( : ..x.a i p.s.s.x.E 4 u.s.s.s.s.l.X.q O X q X.g.x.E . T.",
"!.!.!.  # -.7.7.;.U 6.8.#.m j j L 2.9.9.9.9.0.9.9.4.T $.4.Q 2 + | l.f.) *  .! f ] s.s.p./ f ) p.s.s.s.l.o.d E / / E d ..x.{ C . ",
"!.      3 1.7.7.9.9.9.1.,.S j j j *.9.9.9.9.9.9.6.*.B $.=.m = q ` t.l.( * | : W l.s.s.p.u s l.s.s.s.s.X.) q { c.c.} q ) X.c.' X ",
"!.. . 3 <.9.9.9.9.9.5.N ~.~.h j j *.9.9.9.9.9.9.#.N ;.1 X s X.} ; _ x.) * | 4 W g.g.p.g.i s g.s.p.g.l.( =  .p.s.s.p.| : ( c.` X ",
". z H +.9.9.9.9.9.9.6.b v.,.j j j *.0.9.9.9.9.9.4.Y h W ; a c...* _ _ d ~ a E } g.l.X.f Z [ s.s.p.g.c.( = o.g.s.s.s.o.= ^ x.' . ",
". U q.8.9.9.9.9.9.9.6.P z h j j b ;.9.9.9.9.9.9.4.U y | E d } o.u ^ p : _ y { l.o.[ ' t ` l.s.s.p.} [ E + ` X.g.s.s.X.i ` l.` X ",
". J 8.9.9.9.9.9.9.9.9.9.P j j z 2.9.9.9.9.9.9.8.K 5  .s.X.W q X.o.y . . = | p.l.^ X + [ p.s.s.p.X.t X X . + [ g.p.s.s.y.p.g._ X ",
". U 8.9.9.9.9.9.9.9.9.6.;.%.%.*.6.9.9.9.9.9.9.8.J - X.s.f.| / i u O . . # t.f.~ d ^ ( X.g.l.} p p ! ^ ^ ^ ^ a t / g.p.g.g._ t   ",
". n <.9.9.9.9.9.9.9.9.9.9.9.0.9.9.9.9.9.9.6.9.;.M p X.s.X.o.W X & 1 1 1 y _ ] V Z l.l.s.} ] ^ : 4 [ l.g.l.u.a ; s { u.p.g.Z . T.",
"Q.. x 8.9.9.9.9.9.9.9.9.9.9.9.9.9.9.9.9.9.9.9.l u X.s.s.c.W X @ &.6.6.6.&.& X W p.s.X.p.p . t o.X.p.g.p.p.p.y.u./ : t.g.h.Z . T.",
"Q.. l q.9.9.9.9.9.9.9.9.9.9.9.9.9.9.9.9.9.9.0.j i  .p t u c K Y 5.8.9.9.5.T K v /  .p t W ( ] X.g.g.l.g.g.p.g.l.~ ; t.h.! 4   E.",
"Q.  h *.9.9.2.;.;.;.6.9.6.9.9.9.9.9.9.9.9.6.&.9 q ^ 2 1 1 n 9.9.9.9.9.9.9.9.8.N v ^ q q ' X.c.l.s.{ ' ' [ X.l.l.) p ' ' q   Q.T.",
"Q.T.  9 5.6.L j l b 6.9.9.9.9.9.9.9.9.9.9.6.2 . . , 1.6.6.6.9.9.9.9.9.9.9.9.9.9.H ; ..X.c.X.X.l.X.u X X ; ..s.s.s.] O .   Q.T.T.",
"Q.Q.  & h 4.2.L h b 5.9.9.9.9.9.9.9.9.9.1.e B U U @.6.9.9.9.9.9.9.9.9.9.9.9.9.9.H = t.f.X.X.c.X.a W ) ) ^ p } l.g.] O   T.T.T.T.",
"Q.Q.T.  @ K Y K B I 6.9.9.9.9.9.9.9.9.9.<.e &.8.8.8.9.9.9.9.9.9.9.9.9.9.9.9.9.9.+.r _ t.c.c.X.) u [ c.l.} + ] s.g.[ X   T.T.T.T.",
"T.E.E.E.  X . b 9.6.6.6.9.9.9.9.9.9.9.9.6.6.9.9.9.9.9.9.9.9.9.9.9.9.6.9.9.9.9.9.9.%.& [ p.p.' * } s.s.s.} = ] l.f.] X   Q.Q.Q.Q.",
"T.T.E.E.T.    1 2 2 2 3 Y 8.8.9.9.9.9.9.9.9.9.9.9.9.9.9.6.9.9.9.9.9.9.9.9.9.9.9.9.&.O : 4 ^ ] * | s.s.s.X.] X.l.` q   T.Q.Q.Q.Q.",
"E.E.E.E.T.T.T.  . . . . x Y %.6.9.9.9.9.9.9.9.9.9.9.9.9.9.9.9.9.9.9.9.9.9.9.9.9.9.#.o . . p ! + | l.s.s.s.s.s.c.~ . T.T.Q.Q.Q.Q.",
"E.E.E.E.T.T.T.T.T.T.T.T.. . 1 5.9.9.6.9.9.9.9.9.9.9.9.9.9.9.9.9.9.9.9.9.9.9.9.9.0.%.O   ^.  . # } s.s.s.s.s.X.l.! . T.T.Q.Q.Q.Q.",
"T.T.T.T.!.!.!.!.R.R.R.R.  . 1 6.9.9.0.9.9.9.9.9.9.9.6.9.9.9.9.9.9.9.6.9.9.9.9.9.9.#.X   ^.      4 ] c.c.x.p.s 4 5   ^.^.T.T.T.T.",
"T.T.T.T.!.!.!.!.R.R.R.R.E.  1 O.r.N.w.9.9.9.9.9.9.9.9.9.9.9.9.9.9.9.9.9.9.9.9.9.8.#.O   ^.^.^.^.. ! ( ) ( ( = .   ^.^.^.T.T.E.T.",
"T.T.T.T.!.!.!.!.R.R.E.T.E.E.  % S.I.V.8.0.9.9.9.9.9.9.9.9.9.9.6.9.9.9.9.9.9.9.9.8.#.@   ^.^.^.^.!.. . . . .   !.^.^.^.^.!.!.!.!.",
"T.T.T.T.!.!.!.!.R.R.R.T.E.E.  % F.I.K.J.C.e.9.9.9.9.9.9.9.9.9.9.9.6.9.9.6.9.9.9.9.6.Y &   ^.^.^.!.          !.!.^.^.^.^.!.!.!.!.",
"!.!.!.!.!.!.!.!.T.T.T.T.Q.Q.  $ n.G.I.I.L.+.1.8.9.9.9.9.9.9.9.9.r.B.>.Q 9.9.9.9.9.8.4.>   T.E.E.!.E.E.E.^.^.^.^.E.E.E.E.T.T.T.T.",
"!.!.!.!.!.!.!.!.T.T.T.T.Q.Q.Q.Q.. m.P.I.D.% $.8.9.9.9.9.9.9.5.w.K.U.G w 6.9.9.9.9.9.4.1   T.E.E.!.!.E.E.^.^.^.^.E.E.E.E.T.T.T.T.",
"!.!.!.!.!.!.!.!.T.T.T.T.Q.Q.Q.Q.  7 n.U.D.< Y 8.9.9.9.9.9.J k J.Y.U.G 2 9.9.9.9.9.9.9.#.9   Q.T.E.E.E.E.^.^.^.^.E.E.E.E.T.T.T.T.",
"!.!.!.!.!.!.!.!.T.T.T.T.Q.Q.Q.Q.T.. D Z.F.< Q 8.9.9.9.9.8.b 8 H.M.m.F l U 6.9.9.9.9.9.9.0 . T.T.E.E.E.E.^.^.^.^.E.E.E.E.T.T.T.T.",
"T.T.T.T.!.!.!.!.!.!.!.!.E.E.E.E.T.. . D S.< Q 8.9.9.9.9.8.n 8 S.6 . b U & ;.9.9.9.9.9.9.g . !.!.E.T.T.T.!.!.!.!.T.T.T.T.!.!.!.!.",
"T.T.T.T.!.!.!.!.!.!.!.!.E.E.E.E.T.. h O.7 X @.q.9.9.9.9.8.N o 7 X 1 T Y . , &.8.9.9.9.9.g . !.!.E.T.T.T.!.!.!.!.T.T.T.T.!.!.!.!.",
"T.T.T.T.!.!.!.!.!.!.!.!.E.E.E.E.T.  h N e h n &.9.9.9.9.8.n . . . 3 Y :.0 X l :.9.9.9.9.9 . !.!.T.T.T.T.!.!.!.!.T.T.T.T.!.!.!.!.",
"T.T.T.T.!.!.!.!.!.!.!.!.E.E.E.E.T.T.  3 6.6.1 b 9.9.9.9.8.N .   . 3 T 9.;.@ . n 5.5.9.6.9 . !.!.T.T.T.T.!.!.!.!.T.T.T.T.!.!.!.!.",
"!.!.!.!.!.!.!.!.!.!.!.!.T.T.T.T.E.E.  3 6.6.1 b 8.9.9.9.8.n .   . 3 z T ;.@   & 9 J 5.P > . !.!.!.!.!.!.!.!.!.!.!.!.!.!.!.!.!.!.",
"!.!.!.!.!.!.!.!.!.!.!.!.T.T.T.T.E.E.  3 6.6.1 n 8.9.9.9.Q h .   > g j z b @   . # x +.z # . !.!.!.!.!.!.!.!.!.!.!.!.!.!.!.!.!.!.",
"!.!.!.!.!.!.!.!.!.!.!.!.T.T.T.T.E.E.  3 6.5.1 n 9.6.9.6.0 .   X h j j 9 . T.T.. & j j j > . !.!.!.!.!.!.!.!.!.!.!.!.!.!.!.!.!.!.",
"!.!.!.!.!.!.!.!.!.!.!.!.T.T.T.T.E.E.  3 3.N @ N :.L 5.L > .   X g j j 3 . T.T.. # j j j # . !.T.!.!.!.!.!.!.!.!.!.!.!.!.!.!.!.!.",
"!.!.!.!.!.!.!.!.!.!.!.!.!.!.!.!.!.!.  1 T j @ j P z +.x # .   X 1 1 1 ,   T.  # 3 j j j % . T.T.!.!.!.!.!.!.!.!.!.!.!.!.!.!.!.!.",
"!.!.!.!.!.!.!.!.!.!.!.!.!.!.!.!.!.E.X # j j @ , j j j h > . E.!.. . . . E.T.. 1 j j j j & . T.T.!.!.!.!.!.!.!.!.!.!.!.!.!.!.!.!.",
"!.!.!.!.!.!.!.!.!.!.!.!.!.!.!.!.!.. > h j j @ , l j h #   E.!.!.        T.E.. 1 j j j j & . T.T.!.!.!.!.!.!.!.!.!.!.!.!.!.!.!.!.",
"!.!.!.!.!.!.!.!.!.!.!.!.!.!.!.!.E.. , j h 1 , g j j h O   !.!.!.E.E.E.E.T.E.  > 1 1 1 1 +   T.T.!.!.!.!.!.!.!.!.!.!.!.!.!.!.!.!.",
"!.!.!.!.!.!.!.!.!.!.!.!.!.!.!.!.!.. , h 9 X 9 j j j h O   !.!.!.T.T.T.T.T.T.T.. . . . .   E.E.E.!.!.!.!.E.E.E.E.!.!.!.!.!.!.!.!.",
"!.!.!.!.!.!.!.!.!.!.!.!.!.!.!.!.!.!.X X X . g z j j h O   !.!.!.T.T.T.T.T.T.T.T.        E.E.E.E.!.!.!.!.E.E.E.E.!.!.!.!.!.!.!.!.",
"!.!.!.!.!.!.!.!.!.!.!.!.!.!.!.!.!.!.  . . . > , 1 , , O   !.!.!.T.T.T.T.T.T.T.T.E.E.T.T.E.E.E.E.!.!.!.!.E.E.E.E.!.!.!.!.!.!.!.!.",
"!.!.!.!.!.!.!.!.!.!.!.!.!.!.!.!.!.!.!.!.E.E.. . . . .   !.!.!.E.T.T.T.T.T.T.T.T.T.T.T.T.E.E.E.E.!.!.!.!.E.E.E.E.!.!.!.!.!.!.!.!."
};
