/* XPM */
static char *_430ab7a789e4b909454498b99ef2dc2xsk7l5RPVNhadXvU[] = {
/* columns rows colors chars-per-pixel */
"64 64 16 1 ",
"  c #6FC8A0",
". c #70C9A1",
"X c #6FC9A0",
"o c #6FC9A1",
"O c #3DB189",
"+ c #501000",
"@ c #E06848",
"# c #3DB188",
"$ c #F8F8F8",
"% c #903828",
"& c black",
"* c #484858",
"= c #C0C0D0",
"- c #A0E0C0",
"; c #A1E0C1",
": c white",
/* pixels */
"    ............XXXX    oooo....XXXX....    ............XXXX....",
"    ............XXXX    oooo....XXXX....    ............XXXX....",
"    ............XXXX    oooo....XXXX....    ............XXXX....",
"    ............XXXX    oooo....XXXX....    ............XXXX....",
"        ................oooooooo    ....oooo............oooo....",
"        ................oooooooo    ....oooo............oooo....",
"        ................oooooooo    ....oooo............oooo....",
"        ................oooooooo    ....oooo............oooo....",
"....        oooo........    ............oooo........    XXXXoooo",
"....        oooo........    ............oooo........    XXXXoooo",
"....        oooo........    ............oooo........    XXXXoooo",
"....        oooo........    ............oooo........    XXXXoooo",
"........oooo    ....OOOO++++++++++++++++............    ........",
"........oooo    ....OOOO++++++++++++++++............    ........",
"........oooo    ....OOOO++++++++++++++++............    ........",
"........oooo    ....OOOO++++++++++++++++............    ........",
"........OOOO    ....++++@@@@@@@@@@@@@@@@++++XXXXoooo    ........",
"........OOOO    ....++++@@@@@@@@@@@@@@@@++++XXXXoooo    ........",
"........OOOO    ....++++@@@@@@@@@@@@@@@@++++XXXXoooo    ........",
"........OOOO    ....++++@@@@@@@@@@@@@@@@++++XXXXoooo    ........",
"............####++++@@@@$$$$@@@@%%%%%%%%@@@@++++....oooo    ....",
"............####++++@@@@$$$$@@@@%%%%%%%%@@@@++++....oooo    ....",
"............####++++@@@@$$$$@@@@%%%%%%%%@@@@++++....oooo    ....",
"............####++++@@@@$$$$@@@@%%%%%%%%@@@@++++....oooo    ....",
"....XXXX....++++@@@@%%%%@@@@@@@@%%%%%%%%%%%%@@@@++++        ....",
"....XXXX....++++@@@@%%%%@@@@@@@@%%%%%%%%%%%%@@@@++++        ....",
"....XXXX....++++@@@@%%%%@@@@@@@@%%%%%%%%%%%%@@@@++++        ....",
"....XXXX....++++@@@@%%%%@@@@@@@@%%%%%%%%%%%%@@@@++++        ....",
"........    &&&&@@@@%%%%%%%%&&&&&&&&%%%%%%%%@@@@&&&&oooo....oooo",
"........    &&&&@@@@%%%%%%%%&&&&&&&&%%%%%%%%@@@@&&&&oooo....oooo",
"........    &&&&@@@@%%%%%%%%&&&&&&&&%%%%%%%%@@@@&&&&oooo....oooo",
"........    &&&&@@@@%%%%%%%%&&&&&&&&%%%%%%%%@@@@&&&&oooo....oooo",
"........oooo****&&&&%%%%&&&&========&&&&%%%%&&&&****....        ",
"........oooo****&&&&%%%%&&&&========&&&&%%%%&&&&****....        ",
"........oooo****&&&&%%%%&&&&========&&&&%%%%&&&&****....        ",
"........oooo****&&&&%%%%&&&&========&&&&%%%%&&&&****....        ",
"oooo        ****$$$$&&&&&&&&========&&&&&&&&====****....XXXX....",
"oooo        ****$$$$&&&&&&&&========&&&&&&&&====****....XXXX....",
"oooo        ****$$$$&&&&&&&&========&&&&&&&&====****....XXXX....",
"oooo        ****$$$$&&&&&&&&========&&&&&&&&====****....XXXX....",
"    ....XXXXoooo****$$$$$$$$&&&&&&&&$$$$$$$$****........----....",
"    ....XXXXoooo****$$$$$$$$&&&&&&&&$$$$$$$$****........----....",
"    ....XXXXoooo****$$$$$$$$&&&&&&&&$$$$$$$$****........----....",
"    ....XXXXoooo****$$$$$$$$&&&&&&&&$$$$$$$$****........----....",
"........    ....    ****====$$$$$$$$====****oooooooo;;;;oooo    ",
"........    ....    ****====$$$$$$$$====****oooooooo;;;;oooo    ",
"........    ....    ****====$$$$$$$$====****oooooooo;;;;oooo    ",
"........    ....    ****====$$$$$$$$====****oooooooo;;;;oooo    ",
"    ........oooo    oooo****************XXXX....    ....    ....",
"    ........oooo    oooo****************XXXX....    ....    ....",
"    ........oooo    oooo****************XXXX....    ....    ....",
"    ........oooo    oooo****************XXXX....    ....    ....",
"............    oooooooooooo....XXXX    ........................",
"............    oooooooooooo....XXXX    ........................",
"............    oooooooooooo....XXXX    ........................",
"............    oooooooooooo....XXXX    ........................",
"....................    oooo....                ................",
"....................    oooo....                ................",
"....................    oooo....                ................",
"....................    oooo....                ................",
"....................XXXX    ....        XXXXoooo....oooo........",
"....................XXXX    ....        XXXXoooo....oooo........",
"....................XXXX    ....        XXXXoooo....oooo........",
"....................XXXX    ....        XXXXoooo....oooo........"
};
