/* XPM */
static char *b8167e40828440adae815caa9a4be50a6pEzUPmtjYw6bISg[] = {
/* columns rows colors chars-per-pixel */
"64 64 98 2 ",
"   c None",
".  c #010101",
"X  c #0D0604",
"o  c #0B0906",
"O  c #070709",
"+  c #0A0A0A",
"@  c #160C0A",
"#  c #190E0A",
"$  c #16100C",
"%  c #18110C",
"&  c #0F0F11",
"*  c #0F1010",
"=  c #141516",
"-  c #1A1511",
";  c #151618",
":  c #18191B",
">  c #251C16",
",  c #2F2F14",
"<  c #333316",
"1  c #383817",
"2  c #35351B",
"3  c #37381C",
"4  c #39391E",
"5  c #3B3B21",
"6  c #414125",
"7  c #45462B",
"8  c #3E3E4C",
"9  c #3F404E",
"0  c #41414E",
"q  c #4D444F",
"w  c #454551",
"e  c #4B4553",
"r  c #4A4A56",
"t  c #474758",
"y  c #484758",
"u  c #4A4A59",
"i  c #514A54",
"p  c #4F505E",
"a  c #55505C",
"s  c #5A525C",
"d  c #6F4043",
"f  c #734143",
"g  c #545464",
"h  c #585865",
"j  c #5D5D6C",
"k  c #757C7C",
"l  c #813A24",
"z  c #89412D",
"x  c #9A462D",
"c  c #9D482E",
"v  c #974932",
"b  c #844E49",
"n  c #8A524C",
"m  c #C46246",
"M  c #C86447",
"N  c #C2644A",
"B  c #C86448",
"V  c #D4694B",
"C  c #D96C4C",
"Z  c #D46E50",
"A  c #DA6F51",
"S  c #DC7254",
"D  c #E17050",
"F  c #79807C",
"G  c #B6805F",
"H  c #BC8565",
"J  c #BE8868",
"K  c #C08764",
"L  c #C88F6D",
"P  c #CC926F",
"I  c #D0956F",
"U  c #D69974",
"Y  c #DC9D75",
"T  c #3DB188",
"R  c #7C8383",
"E  c #7F8688",
"W  c #6FC8A0",
"Q  c #70C9A1",
"!  c #818784",
"~  c #82898A",
"^  c #8B8E8D",
"/  c #889090",
"(  c #A3AAB7",
")  c #A5ACB9",
"_  c #CBA381",
"`  c #D6AB88",
"'  c #E2B28D",
"]  c #EEBC94",
"[  c #ACB3C1",
"{  c #B4BCCC",
"}  c #A0E0C0",
"|  c #C1C8D6",
" . c #C7CEDD",
".. c #C8CFDE",
"X. c #E3E1E3",
"o. c #ECEAEB",
"O. c #F0EFF2",
"+. c #F9F9FA",
/* pixels */
"W W W W W W W Q Q Q Q Q Q Q Q Q W W Q Q Q W W W W W W W Q Q Q Q W W W W W Q Q Q W W W W Q Q Q Q Q Q Q Q Q Q Q Q W W W W W W W W ",
"W W W W W W W W Q Q Q Q Q Q Q Q W W Q Q W W W W W W W W Q Q Q Q W W W W W W Q Q W W W W Q Q Q Q Q Q Q Q Q Q Q Q W W W W W W Q W ",
"W W W W W W W W Q Q Q Q Q Q Q Q W W Q Q W W W W W W W W Q Q Q Q W W W W Q Q Q Q W W W W Q Q Q Q Q Q Q Q Q Q Q Q W W W W Q Q Q Q ",
"W W W W W W W W Q Q Q Q Q Q Q Q Q Q Q Q W W W W W Q Q W Q Q Q Q W W W W Q Q Q Q W W W W Q Q Q Q Q Q Q Q Q Q Q Q W W W W Q Q Q Q ",
"W W W W W W W W Q Q Q Q Q Q Q Q Q Q Q Q Q Q Q Q W W Q Q Q Q Q Q W W W W Q Q Q Q W W W W Q Q Q Q Q Q Q Q Q Q Q Q W W Q Q Q Q Q Q ",
"W W W W W W W W Q Q Q Q Q Q Q Q Q Q Q Q Q Q Q Q W W Q Q W Q Q Q W W W W Q Q Q Q W Q W W Q Q Q Q Q Q Q Q Q Q Q Q W W W Q Q Q Q Q ",
"W W W W W W W W Q Q Q Q Q Q Q Q Q Q Q Q Q Q Q Q W W W Q W W W W W W W W Q Q Q Q Q Q Q Q Q Q Q Q Q Q Q Q Q Q Q Q W W Q Q Q Q Q Q ",
"W W W W W W W W Q Q Q Q Q Q Q Q Q Q Q Q Q Q Q Q W W W W W W W W W W W W Q Q Q Q Q Q Q Q Q Q Q Q Q Q Q Q Q Q Q Q W W Q Q Q Q Q Q ",
"Q Q W W W W W W W W W W W W W W Q Q Q Q Q Q Q Q W W W W Q Q Q Q Q Q Q Q Q Q Q Q W W W W Q Q Q Q Q Q W W W W W W W W W W Q Q Q Q ",
"Q Q Q W W W W W W W W W W W W W Q Q Q Q Q Q Q Q W W W W Q Q Q Q Q Q Q Q Q Q Q Q W W W W Q Q Q Q Q Q Q W W W W W W W W W Q Q W W ",
"Q Q W W W W W W W W W W Q Q W W Q Q Q Q Q Q Q Q W W W W Q Q Q Q Q Q Q Q Q Q Q Q Q Q W W Q Q Q Q Q Q W W W W W W W W W W W W W W ",
"Q Q W W W W W W W W W W Q Q Q Q Q Q Q Q Q Q Q Q W W W Q Q Q Q Q Q Q Q Q Q Q Q Q Q Q Q W Q Q Q Q Q Q W W W W W W W W Q Q W W W W ",
"Q Q Q Q Q Q Q Q W W W W W W W W Q Q Q Q T T T T W W W W Q Q Q Q Q Q Q Q Q Q Q Q Q Q Q Q Q Q Q Q Q Q Q Q W W W W Q Q Q Q Q Q Q Q ",
"Q Q Q Q Q Q Q Q W W W W W W W W Q Q Q Q T T T T W W W W Q Q Q Q Q Q Q Q Q Q Q Q Q Q Q Q Q Q Q Q Q Q Q Q W W W W Q Q Q Q Q Q Q Q ",
"Q Q Q Q Q Q Q Q W Q W W W W W W Q Q Q Q T T T T Q Q W Q Q Q Q Q Q Q Q Q Q Q Q Q Q Q Q Q Q Q Q Q Q Q Q Q W W W W Q Q Q Q Q Q Q Q ",
"Q Q Q Q Q Q Q Q W W W W W W W W Q Q Q Q T T T T Q Q Q Q Q Q Q Q Q Q Q Q Q Q Q Q Q Q Q Q Q Q Q Q Q Q Q Q W W W W Q Q Q Q Q Q Q Q ",
"Q Q Q Q Q Q Q Q T T T T Q Q W W W W Q Q T T T T W W W Q Q Q Q Q T T T T W W W W W W W W W W W W W W W W W W W W W W Q Q Q Q Q Q ",
"Q Q Q Q Q Q Q Q T T T T Q Q W W W W Q Q T T T T W W W Q Q Q Q Q T T T T W W W W W W W W W W W W W W Q W W W W W W W Q Q Q Q Q Q ",
"Q Q Q Q Q Q Q Q T T T T Q W W W W Q Q Q T T T T W W W W Q Q Q Q T T T T W W W W W W W W W W Q W W Q Q Q W W W W W Q Q Q Q Q Q Q ",
"Q Q Q Q Q Q Q Q T T T T W W W W Q Q Q Q T T T T W W W W Q Q Q Q T T T T W W W W W W W W W W Q Q W Q Q Q W W W W Q Q Q Q Q Q Q Q ",
"Q Q Q Q Q Q Q Q Q Q Q Q T T T T Q Q Q Q W Q Q Q W Q Q Q T T T T W Q Q Q W Q Q Q Q Q Q Q W Q Q Q Q Q Q Q W W Q Q W W W W Q Q Q Q ",
"Q Q Q Q Q Q Q Q Q Q Q Q T T T T Q Q Q Q Q Q Q Q                                 Q Q Q Q W W Q Q Q Q Q Q W W Q Q W W W W Q Q Q Q ",
"Q Q Q Q Q Q Q Q Q Q W W T T T T Q Q Q Q Q Q Q Q t t t t u u w w y w t t u t r u Q Q Q Q W W W Q Q Q Q Q W W W Q W W W W Q Q Q Q ",
"Q Q Q Q Q Q Q Q W W W W T T T T                 p p p p p p p p g p p p p p p p                 Q Q Q Q W W W Q W W W W Q Q Q Q ",
"Q Q Q Q W W W W W Q Q Q W W W W 1 1 1 1 1 1 1 4 E ~ ~ E ~ E ~ ~ E ~ E ~ ~ E ~ R 4 1 1 1 1 1 1 1 Q Q Q Q W W W W W W W W W W W W ",
"Q Q Q Q W W W W W Q Q Q         4 4 4 5 6 6 6 7 ~ / / / / / / / / / / / / / / ~ 7 6 6 6 4 4 4 5         W W W W W W W W W W W W ",
"Q Q Q Q Q Q W W Q Q Q Q 1 1 1 4 q r e r F ! E E / / / / / / / / / / / / / / / / ! E E R r w w w 1 1 1 1 W W W W W W W W Q Q Q Q ",
"Q Q Q Q Q W W W         5 4 5 5 w y y u / / / / / / / / / / / / / / / / / / / / / / / / r r r w 5 5 4 4         W W W W Q Q Q Q ",
"Q Q Q Q Q Q Q Q . . . . w w w w w u t u ~ / / / / / / / / / / / / / / / / / / / / / / ~ u t u w w w w 0 . . . . Q Q Q Q W Q Q Q ",
"Q Q Q Q Q Q Q Q . . . . w y y y u u u u E ~ ~ E / / / / / / / / / / / / / / / / ~ ~ ~ E u u t u y y y w O . . . Q Q Q Q W W Q Q ",
"Q Q Q Q Q Q Q Q . . . O w y y y u u u t p u p g ~ / / / / / / / / / / / / / / ~ g p p u u u u t u y y w . . O O Q Q Q Q W W Q Q ",
"Q Q Q Q Q Q Q Q . . . . w y y y w u t u u u u u E ~ ~ ~ E ~ ~ E E ~ E ~ ~ ~ ~ ~ u y y t t u u u u y y w O . . + Q Q Q Q W W W W ",
"Q Q Q Q Q Q Q Q . . . . w y y y u u u w r r r r p a p p p p p a u g u g u a p p p u u p u u 9 p p u u 9 O . . . W W W W W W W W ",
"Q Q Q Q         # % % - 8 8 w 0 w w w w w w w w w w w w w w w w w w w w r w w w 9 9 9 9 9 9 9 9 9 9 9 9 % % $ $         W W W W ",
"Q Q Q Q . . . o H H K G = O O + 3 4 4 4 4 4 4 4 4 4 4 4 4 4 4 4 4 4 4 4 4 4 4 4 3 3 3 3 6 5 5 3 + + * * G J K G o . . . W W W W ",
"Q Q W W . . . o P Y Y P X . . . , < < < 6 6 6 7 6 6 6 6 6 6 6 6 6 6 6 6 6 6 6 6 7 5 7 5 3 < < , . . . + I Y Y I o . . . W W W W ",
"W W W W . . . o ' ] ] ' o . . . . o . + F E E F E E E E ~ E F ! E ! ! ! E E E ! E G E R + o . . . . . o ' ] ] ' o . . . W W W W ",
"W W W W . . . o U ` ` _ o . . . $ $ % - R ~ ~ ~ R F F F ~ ~ ~ ~ ~ ~ ~ ~ R F R F E ~ E R - % % # . . . o _ ` ` _ o . . . W W W W ",
"W W W W         - - ; - . . . o G J K H a a p r = * * = u p p u p p p u = + * = p p p s H K K G o . . . - % - -         Q Q Q Q ",
"W W W W W W W W . . . . . . . o I Y Y U s a a a . . . . i s a a a a a i O . . . i a a s U Y Y I o . . . . . . . Q Q W W Q Q Q Q ",
"W W W W Q Q Q Q         . . . o ' ] ] ] L L L H X . . X H L L L L L L G O . . X H L L L ] ] ] ' o . . .         } } } } Q Q Q Q ",
"W W W W Q Q Q Q W W W W . . . o ' ] ] ] Y Y Y I > - - > I Y Y Y Y Y Y I , % - > I Y Y Y ] ] ] ` o . . . Q Q Q Q } } } } Q Q Q Q ",
"W W W W Q Q Q Q W W W W . . . o P Y Y Y ] ] ] ] ` ` ` ` ] ] ] ] ] ] ] ] ` ` ` ` ] ] ] ] Y Y Y P o . . . Q Q Q Q } } } } Q Q Q Q ",
"W W W W Q Q Q Q         + = + : J L L P ' ' ' ' ] ] ] ] ] ] ] ] ] ] ] ] ] ] ] ] ' ' ' ' P L L J - & * *         } } } } Q Q Q Q ",
"Q Q Q Q Q Q Q Q . . . O k k R R s s a s b b b n U Y Y Y Y Y Y Y Y Y Y Y Y Y Y U n b b b s a a s F F R k O . . . W W W W Q W W W ",
"Q Q Q Q         O O O & ~ / / ~ w 8 0 w d f f f H J K K K K K K K K K K K K K H f f f d 9 9 w w / / / E & O O O         W W W W ",
"Q Q Q Q . . . . 8 8 9 w ~ / / ~ & O + + e r r q - # $ # # $ # $ % % % % % # @ % e e r e + + + + E / / ~ w 8 8 8 . . . . W W W W ",
"Q Q Q Q O O O & h j j j E ~ E R O . . . u p a r # @ @ @ X X X X X X X X @ @ # # u g a y O . . O R ~ E E j j j h & + O X W W W W ",
"W W W W w 8 8 y X.o.o.X.h u p u O . . o R ~ ! ~ B B B M l l l l l l l l B B B N ! ~ ~ F O . . O u p u h X.o.o.X.r 8 w 9 W Q Q Q ",
"Q Q W W u u u g O.+.+.O.j h h p + . . + ~ / / ^ D D D D c x x x x x x x C C C Z ^ / / ~ o o . + g g h j O.+.+.O.g y y u W Q Q Q ",
"W W W W y y y p | .... .{ { { [ 5 < < 3 ~ / / ^ A D D D V C C V C C C V x x x v ^ / / ~ 3 < < 5 [ { { {  . ...| p y y u Q Q Q Q ",
"W W W W y y y p ) [ [ [ [ [ [ ) 4 < < 2 E ~ ~ ! S D D D C C C C C C C V x x x v ! ~ E E 3 < < 4 ) [ [ [ [ [ [ ) u u y y Q Q Q Q ",
"W W Q Q         ; = = = ; = = = O . X + u a p g A S D C c c x x x x x x V C C B s p p u + O . . ; ; ; ; ; ; = ;         Q Q Q Q ",
"W W Q Q Q Q Q Q . . . . . O . . O + X + 8 9 9 w m M M m z z z z z z z z B B B N q 8 w 8 + O O O O . . . . . . . Q Q Q Q Q Q Q Q ",
"W Q Q Q Q Q Q Q         < < < 2 9 0 9 8 & O O O @ @ @ # q i i i i i e e # # # @ O O O + 8 w w 8 < < < <         Q Q Q Q Q Q Q Q ",
"Q Q Q Q Q Q Q Q Q Q W W < < < 2 9 0 9 8 + O O O O O O + 8 0 8 0 9 9 0 8 + O O O O O O + 8 9 8 8 < < < < W Q Q Q Q Q Q Q Q Q Q Q ",
"Q Q Q Q Q Q Q Q Q Q Q Q . . o o O O O + 8 8 8 8 w 9 9 8 + + + + + + + + 8 8 w 8 8 8 8 8 O O O O o . O O Q Q Q Q Q Q Q Q Q Q Q Q ",
"Q Q Q Q Q Q Q Q Q Q Q Q . . . . = ; = : p h h g 9 8 w 8 . . . . . . . . 8 w 8 w g h h g : ; ; ; . . . . Q Q Q Q Q Q Q Q Q Q Q Q ",
"Q Q Q Q Q Q Q Q Q Q Q Q . . . + ) [ [ [ { { { [ = O O +                 O O O ; [ { { { [ [ [ ) + . . . Q Q Q Q Q Q Q Q Q Q Q Q ",
"Q Q Q Q Q Q Q Q Q Q Q Q . . . + ) [ [ [ [ [ [ ( + . . . Q Q Q Q W W W W . . . O ( [ [ [ [ [ [ ) + . . . Q Q Q Q Q Q Q Q Q Q Q Q ",
"Q Q Q Q Q Q Q Q Q Q Q Q         = = = = = = = =         Q Q Q Q W W W W         = = = = = = ; =         W W W Q Q Q Q Q Q Q Q Q ",
"Q Q Q Q Q Q Q Q Q Q Q Q W Q Q Q . . . . . . . . W W W W Q Q Q Q W W W W W W W W . . . . . . . . Q Q Q Q W W W Q Q Q Q Q Q Q Q Q ",
"Q Q Q Q Q Q Q Q Q Q Q Q Q Q Q Q                 W W W W W Q W W W W W W W W W W                 Q Q Q Q W W W W Q Q Q Q Q Q Q Q ",
"Q Q Q Q Q Q Q Q Q Q Q Q Q Q Q Q Q Q Q Q W W W W W W W W W W W W W W W W W W W W W W W W W W W W Q Q Q Q W W W W Q Q Q Q Q Q Q Q "
};
