/* XPM */
static char *a15f581754b541a698b53e8e04b3c2dbTuRAeE5wApilOSaD[] = {
/* columns rows colors chars-per-pixel */
"64 64 126 2 ",
"   c None",
".  c #010101",
"X  c #0B0504",
"o  c #070807",
"O  c #0B0906",
"+  c #060709",
"@  c #0A0B0C",
"#  c #100704",
"$  c #160E0B",
"%  c #17100C",
"&  c #1B130F",
"*  c #0E0F10",
"=  c #0F1010",
"-  c #131416",
";  c #1A1410",
":  c #16171A",
">  c #17181A",
",  c #251C16",
"<  c #353516",
"1  c #383817",
"2  c #35351A",
"3  c #3A371A",
"4  c #3A3A1E",
"5  c #3B3B22",
"6  c #470E00",
"7  c #4F1304",
"8  c #511102",
"9  c #591504",
"0  c #54190C",
"q  c #413E1D",
"w  c #793622",
"e  c #6B3A3B",
"r  c #723B39",
"t  c #783F3B",
"y  c #43401F",
"u  c #414125",
"i  c #494222",
"p  c #45462B",
"a  c #514726",
"s  c #524928",
"d  c #3D3D4B",
"f  c #773F40",
"g  c #3F404E",
"h  c #41414E",
"j  c #454552",
"k  c #4C4654",
"l  c #4A4955",
"z  c #474758",
"x  c #484758",
"c  c #494959",
"v  c #554C56",
"b  c #4F505E",
"n  c #56505B",
"m  c #58515B",
"M  c #734143",
"N  c #7B4342",
"B  c #7F4A46",
"V  c #535463",
"C  c #747B7B",
"Z  c #803923",
"A  c #92422A",
"S  c #9A462D",
"D  c #824A45",
"F  c #854E4A",
"G  c #89514B",
"H  c #CD6647",
"J  c #C4664D",
"K  c #C8674C",
"L  c #D66B4C",
"P  c #D96B4C",
"I  c #CF6C51",
"U  c #E17050",
"Y  c #7C837E",
"T  c #B7815F",
"R  c #BD8666",
"E  c #C08764",
"W  c #C28965",
"Q  c #C88F67",
"!  c #C28A6A",
"~  c #C98F6C",
"^  c #CC916C",
"/  c #D1946D",
"(  c #D79972",
")  c #DA9B72",
"_  c #3DB188",
"`  c #7C8383",
"'  c #6FC8A0",
"]  c #70C9A1",
"[  c #808784",
"{  c #828A8B",
"}  c #888F8F",
"|  c #889090",
" . c #959C9C",
".. c #A2A8B6",
"X. c #A3AAB8",
"o. c #AAB1BE",
"O. c #CDA481",
"+. c #D6AA86",
"@. c #D7AC88",
"#. c #D6AB88",
"$. c #DAAC88",
"%. c #DEAD8B",
"&. c #E3B28F",
"*. c #E1B08C",
"=. c #E4B38F",
"-. c #E8B690",
";. c #E7B991",
":. c #E7BA92",
">. c #ECBA92",
",. c #EDBC94",
"<. c #EEBC94",
"1. c #EFBD95",
"2. c #EEBD94",
"3. c #F0BF97",
"4. c #F1C199",
"5. c #F2C199",
"6. c #ACB3C1",
"7. c #B4BCCC",
"8. c #BDC4D1",
"9. c #A0E0C0",
"0. c #A1E0C1",
"q. c #C8CFDE",
"w. c #E5E4E4",
"e. c #EBEAEC",
"r. c #F3F2F1",
"t. c #F9F8FA",
/* pixels */
"' ' ' ' ' ' ' ] ] ] ] ] ] ] ] ] ' ] ] ] ' ' ' ' ' ' ' ' ] ] ] ] ' ' ' ' ] ] ] ] ' ' ' ' ' ' ] ] ] ] ] ] ] ] ] ] ] ] ' ' ' ' ' ] ",
"' ' ' ' ' ' ' ' ] ] ] ] ] ] ] ] ' ' ] ] ' ' ' ' ' ' ' ' ] ] ] ] ' ' ' ] ] ] ] ] ' ' ' ' ] ] ] ] ] ] ] ] ] ] ] ] ' ' ' ' ' ' ] ] ",
"' ' ' ' ' ' ' ' ] ] ] ] ] ] ] ] ' ' ' ' ' ' ' ' ] ' ' ' ] ] ' ' ' ] ] ] ] ] ] ] ' ' ' ' ] ] ] ] ] ] ] ] ] ] ] ] ' ' ' ' ] ] ] ] ",
"' ' ' ' ' ' ' ' ] ] ] ] ] ] ] ] ' ' ' ' ' ' ' ' ] ' ' ' ' ' ' ' ' ' ] ] ] ] ] ] ' ' ' ' ] ] ] ] ] ] ] ] ] ] ] ] ' ' ' ' ] ] ] ] ",
"' ' ' ' ' ' ' ' ] ] ] ] ] ] ] ] ] ] ] ] ] ] ] ] ] ] ' ' ' ' ' ' ' ' ' ' ] ] ] ] ' ' ' ' ] ] ] ] ] ] ] ] ] ] ] ] ' ' ' ' ] ] ] ] ",
"' ' ' ' ' ' ' ' ] ] ] ] ] ] ] ] ] ] ] ] ] ] ] ] ] ] ' ' ' ' ] ] ' ' ' ' ] ] ] ] ' ' ' ' ] ] ] ] ] ] ] ] ] ] ] ] ' ' ' ] ] ] ] ] ",
"' ' ' ' ' ' ' ' ] ] ] ] ] ] ] ] ] ] ] ] ] ] ] ] ] ] ' ' ' ] ] ] ' ' ' ' ] ] ] ] ' ' ] ] ] ] ] ] ] ] ] ] ] ] ] ] ' ' ] ] ] ] ] ] ",
"' ' ' ' ' ' ' ' ] ] ] ] ] ] ] ] ] ] ] ] ] ] ] ] ] ] ' ' ' ' ] ] ' ' ' ' ] ] ] ] ] ] ] ] ] ] ] ] ] ] ] ] ] ] ] ] ' ' ] ] ] ] ] ] ",
"] ] ' ' ' ' ' ' ' ' ' ' ' ' ' ' ] ] ] ] ] ] ] ] ' ' ' ' ] ] ] ] ' ] ] ] ] ] ] ] ] ' ' ' ] ] ] ] ] ] ] ' ' ' ' ' ] ] ' ' ' ] ' ' ",
"] ] ] ' ' ' ' ' ' ' ' ' ' ' ' ' ] ] ] ] ] ] ] ] ' ' ' ' ] ] ] ] ' ' ] ] ] ] ] ] ] ] ' ' ] ] ] ] ] ] ] ' ' ' ' ' ] ] ' ' ' ' ' ' ",
"] ] ' ' ' ' ' ' ' ' ' ' ] ] ' ' ] ] ] ] ] ] ] ] ' ' ' ' ] ] ] ] ] ] ] ] ] ] ] ] ] ' ' ' ] ] ] ] ] ] ' ' ' ' ' ' ] ' ' ' ' ' ' ' ",
"] ] ' ' ' ' ' ' ' ' ' ' ] ] ] ' ] ] ] ] ] ] ] ] ' ' ' ' ] ] ] ] ] ] ] ] ] ] ] ] ] ' ' ' ] ] ] ] ] ] ' ' ' ' ' ' ] ] ' ' ] ' ' ' ",
"] ] ] ] ] ] ] ] ' ' ' ' ' ' ' ' ] ] ] ] _ _ _ _ ' ' ] ] ] ] ] ] ] ] ] ] ] ] ] ] ] ] ] ] ] ] ] ] ] ] ] ] ' ' ' ' ] ] ] ] ] ] ] ] ",
"] ] ] ] ] ] ] ] ' ' ' ' ' ' ' ' ] ] ] ] _ _ _ _ ' ' ] ] ] ] ] ] ] ] ] ] ] ] ] ] ] ] ] ] ] ] ] ] ] ] ] ] ' ' ' ' ] ] ] ] ] ] ] ] ",
"] ] ] ] ] ] ] ] ' ] ' ' ' ' ' ' ] ] ] ] _ _ _ _ ] ] ] ] ] ] ] ] ] ] ] ] ] ] ] ] ] ] ] ] ] ] ] ] ] ] ] ] ' ' ' ' ] ] ] ] ] ] ] ] ",
"] ] ] ] ] ] ] ] ' ] ' ' ' ' ' ' ] ] ] ] _ _ _ _ ] ] ] ] ] ] ] ] ] ] ] ] ] ] ] ] ] ] ] ] ] ] ] ] ] ] ] ] ' ' ' ' ] ] ] ] ] ] ] ] ",
"] ] ] ] ] ] ] ] _ _ _ _ ] ] ' ' ' ' ] ] _ _ _ _ ' ' ] ] ] ] ] ] _ _ _ _ ' ' ' ' ' ' ' ' ] ] ] ' ] ] ] ' ' ' ' ' ' ' ] ] ] ] ] ] ",
"] ] ] ] ] ] ] ] _ _ _ _ ] ] ' ' ' ' ] ] _ _ _ _ ' ' ] ] ] ] ] ] _ _ _ _ ' ' ' ' ' ' ' ' ] ] ] ' ] ] ' ' ' ' ' ' ] ] ] ] ] ] ] ] ",
"] ] ] ] ] ] ] ] _ _ _ _ ' ' ' ' ] ] ] ] _ _ _ _ ' ' ' ' ] ] ] ] _ _ _ _ ' ' ' ' ' ' ' ' ] ] ' ' ] ' ' ' ] ' ] ] ] ] ] ] ] ] ] ] ",
"] ] ] ] ] ] ] ] _ _ _ _ ' ' ' ' ] ] ] ] _ _ _ _ ' ' ' ' ] ] ] ] _ _ _ _ ' ' ' ' ' ' ' ' ' ' ' ' ] ' ' ' ] ] ] ] ] ] ] ] ] ] ] ] ",
"] ] ] ] ] ] ] ] ] ] ] ] _ _ _ _ ] ] ] ] ' ] ] ] ] ] ] ] _ _ _ _ ' ] ] ] ] ] ] ] ' ' ] ] ' ' ' ' ] ] ] ] ] ] ] ] ' ' ' ' ] ] ] ] ",
"] ] ] ] ] ] ] ] ] ] ] ] _ _ _ _ ] ] ] ] ' ] ] ] ] ] ] ]                                 ' ' ' ' ] ] ] ] ] ] ] ] ' ' ' ' ] ] ] ] ",
"] ] ] ] ] ] ] ] ] ] ' ' _ _ _ _ ] ] ] ] ] ] ] ] ] ] ] ] z z z z z z x z z z z z z z z z ' ' ' ' ] ] ] ] ] ] ] ] ' ' ' ' ] ] ] ] ",
"] ] ] ] ] ] ] ] ] ' ' ' _ _ _ _ ] ] ] ]                 b b b V b b b b b b b b b b b b                 ] ] ] ] ' ' ' ' ] ] ] ] ",
"] ] ] ] ' ' ' ' ' ] ] ] ' ' ' ' ] ] ] ] 1 1 1 1 1 1 1 4 ` { { ` { { ` { { { ` { ` ` | ` 5 2 1 1 1 1 1 1 ' ' ' ' ' ' ' ' ' ' ' ] ",
"] ] ] ] ' ' ' ' ] ] ] ] ' ' ' '         4 4 4 4 u u u p { | | | } } | | | | | | | | | | p u u u 4 4 5 2         ' ' ' ' ' ' ] ] ",
"] ] ] ] ' ] ' ' ] ] ] ] ' ' ' ' 1 1 3 3 h j j l ` [ [ [ | | | | | } | } | | | | | | | | ` ` { ` l j j g + . . . ' ' ' ' ] ] ] ] ",
"] ] ] ] ' ' ' ' ] ] ] ]         4 4 4 5 l c c b } | | | | | | | | | | | | | | | | | | | | | | | b l l j O o . . ' ' ' ' ] ] ] ] ",
"] ] ] ] ] ] ] ] ' ' ] ] . . . + h j j j l z c c } | | | | } | | | | | | | | | | | | | | | | | } c z z l 2 < < < ] ] ] ] ] ] ' ' ",
"] ] ] ] ] ] ] ] ' ' ] ] . . . . j l z c c c c c ` ` { { | | | | | | | | | | | | | | | | } ` ` ` b l z j 5 4 2 5         ] ] ' ' ",
"] ] ] ] ] ] ] ] ' ] ] ] . . . + j c z c z c l z V b b V } | | | | | | | | | | | | | | | V V b b c z z z j j j h o . . . ' ' ' ' ",
"] ] ] ] ] ] ] ]         . . . . j c c z c z z z z c z c ` ` { { { ` | ` { { { ` | ` ` ` c z z l c c z c z l l j o . o o ] ' ' ' ",
"] ] ] ] ] ] ' ' . . . . . . . . j l c c c l z l z c c c b b b b V b b b b b b b b b b b z z z c z l z z z c z j + . . . ' ' ' ' ",
"] ] ] ] ] ] ] ' . . . . * = = - h j j j j j j j c z l c z c z z z z z c x x x x c z l z c c c c c c c z c c c j . . . . ' ' ' ' ",
"] ] ] ] ] ] ' ' . . . + C ` ` C u 2 4 2 4 4 4 4 l z l c c c l z z z c z c z c x z c c z z c l z c z z c c c z j + . . . ' ' ' ' ",
"] ] ] ] ] ] ' ' . . . + ` { { ` p u u u u u u p j j j h j j j j j j j j c c z c c z c c c z z z z z z l d j d d . . . . ' ' ' ' ",
"' ] ] ] ' ' ' '         b b b V ` ` [ [ ` [ [ Y u 2 4 5 4 4 5 4 5 4 4 5 j z z c z c c c c c c c c c z j * + + O         ' ' ] ] ",
"] ] ' ] ' ' ' ' ' ' ' ' h h h j ` } { { { ` { ` 2 < < < 5 2 4 4 4 4 4 4 h j d h g g g h g g g g h h j d . . . . ' ] ] ' ' ' ] ] ",
"' ' ' ' ' ' ' ' ' ' ' ' + + + + l b b b b b b b O o . O j j j j j j j h O + + + + + o o o o o o o + + o . . . . ' ' ' ' ] ] ] ] ",
"' ' ' ' ' ' ' ' ' ' ' ' O O O $ v m m m n n n v . . . . v m m n m m m v O o o o ; ; ; - % % ; - . . . . . . . . ' ' ' ' ] ] ] ] ",
"' ' ' ' ' ] ] ] ' ' ' ' e e e r ! ~ ~ ~ ~ ~ ~ R o . . o E ~ ^ ~ ~ ^ Q R 3 < < 3 O.+.+.+.W E E J o . . . . . . . 9.9.9.9.] ] ] ] ",
"' ' ' ' ' ] ] ] ' ' ' ' t t f B ~ ^ / ~ ) ) ) ( , - ; , / ) ) ) ( ( ( / q 1 1 q :.5.4.4.) ) ) ^ O . . . . . . . 9.9.9.9.] ] ] ] ",
"' ' ' ' ] ] ] ] ' ' ' '         D D D F =.3.3.1.@.@.@.@.1.1.1.>.( ( ( / q 1 1 y ;.4.4.3.( ) ( ~ X . . .         9.9.9.9.] ] ] ] ",
"' ' ' ' ] ] ] ] ' ' ' ' ] ' ' ' t f f B %.&.&.&.1.3.3.3.1.1.1.-.( ( ( / a i y s $.&.&.*.W E E R O . . . ] ] ] ] 9.9.9.9.] ] ] ] ",
"] ] ] ] ] ] ] ] ' ' ' ' ] ] ] ]         F F F G ) ) ) ) ) ) ) ) ) ) ( ( Q Q Q W G F B B ; $ % %         0.0.0.0.' ' ' ' ' ' ' ' ",
"] ] ] ] ] ] ] ] ' ' ' ' ] ] ] ] ' ' ' ' r r r t ! ^ ^ ~ ~ ~ ~ ~ E E R R W W W R M t f f + + + + ] ] ' ] 0.0.0.0.' ' ' ' ' ' ' ' ",
"] ] ] ] ] ] ] ] ' ' ' ' ] ] ] ] ' ' ' ' 0 8 0 0 v v m n V m m v % % % % % % % & k l l k j g j d ' ' ' ' 0.0.0.0.' ' ' ' ' ' ' ' ",
"] ] ] ] ] ] ] ] ' ' ' ' ] ] ] ] ' ' ' ' 8 8 8 8 v v v v g j j d % @ % * % @ * * d g j g z c z z         0.0.0.0.' ' ' ' ' ' ' ' ",
"' ' ' ' ] ] ] ] ] ] ] ] ' ' ' ' ' ' ' ' 8 7 8 8 K I I J $ + @ @ C ` ` ` Y ` C C * + + * z z z j + . . . ] ] ] ] ' ' ' ' ' ' ' ] ",
"' ' ' ' ] ] ] ] ] ] ] ] ' ' ' ' ' ' ' ' 8 8 8 9 P U U L X . . + ` | { } | | | { o . . . j z z j . . . . ] ] ] ] ' ' ' ' ' ' ] ] ",
"' ' ' ' ] ] ] ] ] ] ] ] ] ] ' ' ' ' ' ' 8 8 8 8 P U U L X . . O ` | } } } } | { O . . . j z z j . . . . ] ] ] ] ' ' ' ' ] ] ] ] ",
"' ' ' ' ] ] ] ] ] ] ] ] ] ] ] ' ' ' ' ' 6 6 6 8 H L L H o . . O  . . . . . . .| + . . + j z z z + . . . ] ] ] ] ' ' ' ' ] ] ] ] ",
"' ' ] ] ] ] ] ] ] ] ] ] ' ' ' ' ' ' ' ' X X X # A S S A X . . @ w.r.r.r.r.r.r.w.* . . . j z z j . . . . ' ] ] ] ] ] ] ] ] ] ] ] ",
"' ' ] ] ] ] ] ] ] ] ] ' ' ' ' ' ' ' ' ' . . . . w Z Z w . . . = e.t.t.t.t.t.t.e.* . . + d j d d + . . . ] ] ] ] ] ] ] ] ] ] ] ] ",
"] ] ] ] ] ] ] ] ] ] ' ' ' ' ' ' ' ' ' '         # # # X . . . + 8.q.q.q.q.q.q.8.+ . . . + + O +         ] ] ] ] ] ] ] ] ] ] ] ] ",
"] ] ] ] ] ] ] ] ] ] ' ' ' ' ' ' ' ' ' ' ' ' ' ' . . . . + O + - ..6.6.6.6.6.6...- O + + . . . . ' ] ] ] ] ] ] ] ] ] ] ] ] ] ] ] ",
"] ] ] ] ] ] ] ] ] ] ] ] ] ] ] ] ] ] ] ] ' ' ' ' . . . + d j d d - - - - : - - : d g g d . . . . ] ] ] ] ] ] ] ] ] ] ] ] ] ] ] ] ",
"] ] ] ] ] ] ] ] ] ] ] ] ] ] ] ] ] ] ] ] ' ' ' ' . . . + V V V V : - - - * * * = d j j d . . . . ] ] ] ] ] ] ] ] ] ] ] ] ] ] ] ] ",
"] ] ] ] ] ] ] ] ] ] ] ] ] ] ] ] ] ] ] ] ' ' ' ' . . . + 6.7.7.7.6.6.6.6.` ` ` C = o @ @         ] ] ] ] ] ] ] ] ] ] ] ] ] ] ] ] ",
"] ] ] ] ] ] ] ] ] ] ] ] ] ] ] ] ] ] ] ] ' ' ' ' . . . + ..6.6.6.6.6.6.6.` ` Y C o . . . ] ' ' ' ] ] ] ] ] ] ] ] ] ] ] ] ] ] ] ] ",
"] ] ] ] ] ] ] ] ] ] ] ] ] ] ] ] ] ] ] ] ' ' ' '         - - : - - - : - * * * *         ] ' ' ' ] ] ] ] ' ' ' ' ] ] ] ] ] ] ] ] ",
"] ] ] ] ] ] ] ] ] ] ] ] ] ] ] ] ] ] ] ] ' ' ' ' ' ' ' ' . . . . . . . . . . . . ' ' ' ' ] ' ' ' ] ] ] ] ' ' ' ' ] ] ] ] ] ] ] ] ",
"] ] ] ] ] ] ] ] ] ] ] ] ] ] ] ] ] ] ] ] ' ' ' ' ' ' ' '                         ' ' ' ' ] ] ' ' ] ] ] ] ' ' ] ] ] ] ] ] ] ] ] ] ",
"] ] ] ] ] ] ] ] ] ] ] ] ] ] ] ] ] ] ] ] ' ' ' ' ' ' ' ' ] ] ] ] ' ' ' ' ' ' ' ' ' ' ' ' ] ] ' ' ] ] ] ] ' ' ] ] ] ] ] ] ] ] ] ] "
};
